<svg width="43" height="42" xmlns="http://www.w3.org/2000/svg" xmlns:xlink="http://www.w3.org/1999/xlink" xml:space="preserve" overflow="hidden"><g transform="translate(-505 -79)"><path d="M530.575 120.5C528.515 120.5 526.835 118.82 526.835 116.76 526.835 115.56 527.415 114.44 528.375 113.74L527.875 111.95C527.085 112.09 526.275 112.17 525.475 112.17 521.375 112.17 517.585 110.35 515.015 107.17L514.175 107.73C514.265 108.05 514.305 108.38 514.305 108.71 514.305 110.82 512.585 112.54 510.475 112.54 508.365 112.54 506.645 110.82 506.645 108.71 506.645 106.6 508.365 104.88 510.475 104.88 511.325 104.88 512.135 105.16 512.805 105.67L513.645 105.11C512.585 103.15 512.025 100.94 512.025 98.71 512.025 97.77 512.125 96.83 512.315 95.91L510.855 95.46C510.325 96.02 509.585 96.34 508.815 96.34 507.265 96.34 506.005 95.08 506.005 93.53 506.005 91.98 507.265 90.71 508.815 90.71 510.205 90.71 511.385 91.75 511.595 93.09L513.055 93.54C513.525 92.41 514.145 91.35 514.915 90.38L513.745 89.27C512.885 89.83 511.895 90.13 510.855 90.13 507.925 90.13 505.545 87.75 505.545 84.81 505.545 81.87 507.915 79.5 510.855 79.5 513.785 79.5 516.165 81.88 516.165 84.81 516.165 85.75 515.915 86.66 515.455 87.47L516.625 88.58C519.085 86.42 522.215 85.24 525.485 85.24 528.355 85.24 531.085 86.13 533.395 87.82L534.155 86.95C533.845 86.38 533.685 85.74 533.685 85.09 533.685 82.92 535.445 81.16 537.615 81.16 539.785 81.16 541.545 82.92 541.545 85.09 541.545 87.26 539.785 89.02 537.615 89.02 537.045 89.02 536.485 88.89 535.965 88.65L535.255 89.45C537.635 91.96 538.945 95.23 538.945 98.7 538.945 99.83 538.805 100.95 538.525 102.05L539.755 102.49C540.565 101.42 541.815 100.79 543.165 100.79 545.535 100.79 547.465 102.72 547.465 105.09 547.465 107.46 545.535 109.39 543.165 109.39 540.795 109.39 538.865 107.46 538.865 105.09 538.865 105 538.865 104.91 538.875 104.81L537.675 104.38C536.195 107.55 533.525 110.03 530.265 111.27L530.745 113.01C532.725 113.1 534.305 114.74 534.305 116.75 534.315 118.82 532.635 120.5 530.575 120.5Z" fill="#FFFFFF"/><path d="M510.845 80C513.495 80 515.655 82.16 515.655 84.81 515.655 85.83 515.335 86.77 514.795 87.55L516.595 89.26C518.915 87.08 522.035 85.74 525.465 85.74 528.475 85.74 531.245 86.77 533.445 88.5L534.755 87.01C534.385 86.46 534.165 85.8 534.165 85.1 534.165 83.21 535.705 81.67 537.595 81.67 539.495 81.67 541.035 83.2 541.035 85.09 541.035 86.98 539.495 88.52 537.605 88.52 536.955 88.52 536.355 88.34 535.845 88.03L534.575 89.48C536.965 91.83 538.445 95.1 538.445 98.71 538.445 99.98 538.255 101.21 537.915 102.37L539.945 103.1C540.615 102.02 541.805 101.3 543.165 101.3 545.255 101.3 546.965 103 546.965 105.1 546.965 107.19 545.265 108.9 543.165 108.9 541.065 108.9 539.365 107.2 539.365 105.1 539.365 104.89 539.385 104.69 539.415 104.49L537.405 103.77C535.975 107.14 533.145 109.78 529.655 110.98L530.365 113.54C530.435 113.54 530.495 113.53 530.565 113.53 532.355 113.53 533.805 114.98 533.805 116.77 533.805 118.56 532.355 120.01 530.565 120.01 528.775 120.01 527.325 118.56 527.325 116.77 527.325 115.57 527.985 114.53 528.945 113.97L528.225 111.38C527.335 111.57 526.415 111.68 525.465 111.68 521.235 111.68 517.485 109.65 515.115 106.51L513.575 107.53C513.715 107.9 513.795 108.3 513.795 108.71 513.795 110.55 512.295 112.04 510.465 112.04 508.625 112.04 507.135 110.54 507.135 108.71 507.135 106.87 508.635 105.38 510.465 105.38 511.355 105.38 512.155 105.73 512.755 106.3L514.295 105.28C513.165 103.35 512.505 101.11 512.505 98.72 512.505 97.64 512.645 96.59 512.895 95.58L510.675 94.89C510.255 95.47 509.575 95.85 508.805 95.85 507.525 95.85 506.495 94.81 506.495 93.54 506.495 92.26 507.535 91.23 508.805 91.23 510.065 91.23 511.085 92.24 511.115 93.49L513.335 94.18C513.865 92.78 514.625 91.49 515.585 90.36L513.785 88.65C512.975 89.28 511.955 89.65 510.845 89.65 508.195 89.63 506.035 87.47 506.035 84.81 506.035 82.16 508.195 80 510.845 80M510.845 79C507.645 79 505.035 81.61 505.035 84.81 505.035 87.25 506.545 89.34 508.675 90.2 506.915 90.27 505.505 91.73 505.505 93.51 505.505 95.34 506.995 96.82 508.815 96.82 509.615 96.82 510.385 96.52 510.985 96L511.735 96.23C511.595 97.04 511.515 97.86 511.515 98.68 511.515 100.85 512.025 102.98 512.985 104.91L512.805 105.03C512.115 104.58 511.305 104.34 510.475 104.34 508.085 104.34 506.145 106.28 506.145 108.67 506.145 111.06 508.085 113 510.475 113 512.865 113 514.805 111.06 514.805 108.67 514.805 108.42 514.785 108.17 514.735 107.92L514.915 107.8C517.575 110.88 521.375 112.63 525.475 112.63 526.155 112.63 526.835 112.58 527.515 112.48L527.805 113.52C526.885 114.32 526.335 115.49 526.335 116.73 526.335 119.07 528.235 120.97 530.575 120.97 532.915 120.97 534.815 119.07 534.815 116.73 534.815 114.59 533.215 112.81 531.145 112.53L530.875 111.55C533.925 110.27 536.435 107.93 537.935 104.98L538.365 105.14C538.405 107.75 540.545 109.86 543.165 109.86 545.805 109.86 547.965 107.71 547.965 105.06 547.965 102.42 545.815 100.26 543.165 100.26 541.775 100.26 540.495 100.85 539.585 101.87L539.105 101.7C539.325 100.7 539.435 99.69 539.435 98.67 539.435 95.22 538.195 91.97 535.915 89.42L536.085 89.22C536.565 89.4 537.075 89.49 537.595 89.49 540.035 89.49 542.025 87.5 542.025 85.06 542.025 82.62 540.035 80.63 537.595 80.63 535.155 80.63 533.165 82.62 533.165 85.06 533.165 85.68 533.295 86.28 533.535 86.84L533.285 87.12C530.965 85.54 528.285 84.71 525.455 84.71 522.215 84.71 519.105 85.83 516.615 87.88L516.045 87.34C516.435 86.55 516.635 85.68 516.635 84.78 516.665 81.61 514.055 79 510.845 79L510.845 79ZM510.845 90.63C511.845 90.63 512.805 90.38 513.665 89.9L514.225 90.44C513.645 91.22 513.155 92.05 512.755 92.93L512.005 92.7C511.775 91.81 511.175 91.06 510.375 90.62 510.545 90.62 510.695 90.63 510.845 90.63L510.845 90.63Z" fill="#FFFFFF"/><path d="M543.165 101.3C541.805 101.3 540.615 102.02 539.945 103.1L537.915 102.37C538.255 101.21 538.445 99.98 538.445 98.71 538.445 95.1 536.965 91.83 534.575 89.48L535.845 88.03C536.365 88.34 536.965 88.52 537.605 88.52 539.495 88.52 541.035 86.98 541.035 85.09 541.035 83.2 539.495 81.66 537.605 81.66 535.715 81.66 534.175 83.2 534.175 85.09 534.175 85.8 534.395 86.46 534.765 87L533.455 88.5C531.255 86.77 528.485 85.74 525.475 85.74 522.045 85.74 518.925 87.08 516.605 89.26L514.805 87.55C515.345 86.77 515.665 85.83 515.665 84.81 515.665 82.16 513.505 80 510.845 80 508.185 80 506.035 82.16 506.035 84.81 506.035 87.46 508.195 89.62 510.845 89.62 511.955 89.62 512.965 89.24 513.785 88.62L515.585 90.33C514.635 91.45 513.865 92.74 513.335 94.15L511.115 93.46C511.085 92.21 510.065 91.2 508.805 91.2 507.525 91.2 506.495 92.24 506.495 93.51 506.495 94.78 507.535 95.82 508.805 95.82 509.575 95.82 510.255 95.44 510.675 94.86L512.895 95.55C512.645 96.56 512.505 97.61 512.505 98.69 512.505 101.08 513.155 103.32 514.295 105.25L512.755 106.27C512.155 105.7 511.355 105.35 510.465 105.35 508.625 105.35 507.135 106.85 507.135 108.68 507.135 110.52 508.635 112.01 510.465 112.01 512.295 112.01 513.795 110.51 513.795 108.68 513.795 108.26 513.715 107.86 513.575 107.5L515.115 106.48C517.485 109.62 521.245 111.65 525.465 111.65 526.415 111.65 527.335 111.55 528.225 111.35L528.945 113.94C527.975 114.5 527.325 115.55 527.325 116.74 527.325 118.53 528.775 119.98 530.565 119.98 532.355 119.98 533.805 118.53 533.805 116.74 533.805 114.95 532.355 113.5 530.565 113.5 530.495 113.5 530.435 113.51 530.365 113.51L529.655 110.95C533.145 109.76 535.975 107.11 537.405 103.74L539.415 104.46C539.385 104.66 539.365 104.86 539.365 105.07 539.365 107.16 541.065 108.87 543.165 108.87 545.255 108.87 546.965 107.17 546.965 105.07 546.965 102.97 545.255 101.3 543.165 101.3ZM535.665 85.09C535.665 84.02 536.535 83.15 537.605 83.15 538.675 83.15 539.545 84.02 539.545 85.09 539.545 86.16 538.675 87.03 537.605 87.03 536.535 87.04 535.665 86.16 535.665 85.09ZM509.645 93.52C509.645 93.98 509.275 94.35 508.815 94.35 508.355 94.35 507.985 93.98 507.985 93.52 507.985 93.06 508.355 92.69 508.815 92.69 509.275 92.69 509.645 93.06 509.645 93.52ZM512.335 108.7C512.335 109.72 511.505 110.55 510.485 110.55 509.465 110.55 508.635 109.72 508.635 108.7 508.635 107.68 509.465 106.85 510.485 106.85 511.505 106.85 512.335 107.68 512.335 108.7ZM532.335 116.76C532.335 117.73 531.545 118.52 530.575 118.52 529.605 118.52 528.815 117.73 528.815 116.76 528.815 115.79 529.605 115 530.575 115 531.545 115 532.335 115.79 532.335 116.76ZM514.025 99.44 519.385 99.44C519.535 103.32 520.895 106.97 523.285 109.97 518.235 108.99 514.365 104.69 514.025 99.44ZM523.285 87.43C520.895 90.43 519.535 94.08 519.385 97.96L514.025 97.96C514.365 92.71 518.235 88.41 523.285 87.43ZM536.935 97.96 531.575 97.96C531.425 94.08 530.065 90.43 527.675 87.43 532.725 88.41 536.595 92.71 536.935 97.96ZM520.865 97.96C521.035 93.91 522.645 90.15 525.435 87.22 525.445 87.22 525.465 87.22 525.475 87.22 525.485 87.22 525.505 87.22 525.515 87.22 528.305 90.15 529.905 93.91 530.085 97.96L520.865 97.96ZM520.865 99.44 530.085 99.44C529.915 103.48 528.305 107.25 525.515 110.18 525.505 110.18 525.485 110.18 525.475 110.18 525.465 110.18 525.445 110.18 525.435 110.18 522.645 107.25 521.045 103.49 520.865 99.44ZM531.575 99.44 536.935 99.44C536.595 104.69 532.725 108.99 527.675 109.97 530.065 106.97 531.425 103.33 531.575 99.44ZM510.845 88.15C509.005 88.15 507.515 86.65 507.515 84.82 507.515 82.99 509.015 81.49 510.845 81.49 512.675 81.49 514.175 82.99 514.175 84.82 514.175 86.65 512.685 88.15 510.845 88.15ZM543.165 107.41C541.885 107.41 540.855 106.37 540.855 105.1 540.855 103.82 541.895 102.79 543.165 102.79 544.435 102.79 545.475 103.83 545.475 105.1 545.475 106.37 544.445 107.41 543.165 107.41Z" fill="#2C5967"/></g></svg>