<svg width="42" height="41" xmlns="http://www.w3.org/2000/svg" xmlns:xlink="http://www.w3.org/1999/xlink" xml:space="preserve" overflow="hidden"><g transform="translate(-372 -80)"><path d="M406.58 90.08C407.075 89.2243 406.783 88.1293 405.927 87.6342 405.925 87.6328 405.922 87.6314 405.92 87.63L393 80.14 375.32 90.32 375.32 100.62 372 100.62 372 110.98 379.4 110.98C379.171 111.391 379.11 111.875 379.23 112.33 379.352 112.792 379.654 113.185 380.07 113.42L393 120.86 410.58 110.68 410.58 100.44 414 100.44 414 90.08ZM378.92 100.62 378.92 92.4 382.55 90.3 382.55 100.62 378.92 100.62ZM393 116.71 383 110.98 402.86 110.98ZM393.17 90.08 382.94 90.08 393 84.3 403 90.08ZM407 108.6 403.46 110.6 403.46 100.44 407 100.44Z" fill="#FFFFFF"/><path d="M413 91.08 404.64 91.08 404.64 94.46 402.45 94.46 402.45 91.08 394.09 91.08 394.09 94.46 391.91 94.46 391.91 91.08 383.55 91.08 383.55 99.44 391.91 99.44 391.91 96.06 394.09 96.06 394.09 99.44 397.47 99.44 397.47 101.62 394.09 101.62 394.09 105.01 391.91 105.01 391.91 101.62 383.55 101.62 383.55 105.01 381.36 105.01 381.36 101.62 377.92 101.62 377.92 91.82 393 83.14 404.62 89.88C405.004 90.1009 405.494 89.9688 405.715 89.585 405.936 89.2012 405.804 88.7109 405.42 88.49L393 81.29 376.32 90.9 376.32 101.62 373 101.62 373 109.98 381.36 109.98 381.36 106.6 383.55 106.6 383.55 109.98 391.91 109.98 391.91 106.6 394.09 106.6 394.09 109.98 402.45 109.98 402.45 101.62 399.07 101.62 399.07 99.44 402.45 99.44 402.45 96.06 404.64 96.06 404.64 99.44 408 99.44 408 109.14 393 117.86 381.37 111.14C380.986 110.919 380.496 111.051 380.275 111.435 380.054 111.819 380.186 112.309 380.57 112.53L393 119.71 409.58 110.14 409.58 99.44 413 99.44ZM390.31 97.84 385.15 97.84 385.15 92.68 390.31 92.68ZM379.76 108.39 374.6 108.39 374.6 103.22 379.76 103.22ZM390.31 108.39 385.15 108.39 385.15 103.22 390.31 103.22ZM400.85 108.39 395.69 108.39 395.69 103.22 400.85 103.22ZM400.85 97.84 395.69 97.84 395.69 92.68 400.85 92.68ZM411.4 97.84 406.24 97.84 406.24 92.68 411.4 92.68Z" fill="#2C5967"/></g></svg>