<svg width="42" height="46" xmlns="http://www.w3.org/2000/svg" xmlns:xlink="http://www.w3.org/1999/xlink" xml:space="preserve" overflow="hidden"><g transform="translate(-1039 -77)"><path d="M1048.84 90.395 1049 88.245C1049.13 86.2821 1050.26 84.5253 1052 83.605 1052.19 83.4975 1052.32 83.3103 1052.36 83.095 1052.65 81.6493 1053.64 80.4413 1055 79.865 1055.57 79.6219 1056.18 79.496 1056.8 79.495 1056.94 79.4851 1057.07 79.4851 1057.21 79.495L1057.21 79.495C1057.42 79.5093 1057.62 79.4324 1057.76 79.285 1059.78 77.1182 1063.17 76.9967 1065.34 79.0136 1065.81 79.4514 1066.19 79.9701 1066.48 80.545 1066.59 80.7473 1066.78 80.8908 1067 80.935 1067.61 81.0756 1068.2 81.319 1068.73 81.655 1071.16 83.1913 1071.99 86.3424 1070.63 88.875L1069.81 90.335 1069.06 91.335 1068.06 90.665C1062.82 86.9953 1055.77 87.2819 1050.85 91.365L1048.84 93.095Z" fill="#FFFFFF"/><path d="M1061.65 78.095C1063.49 78.0874 1065.18 79.1312 1066 80.785 1066.17 81.1253 1066.49 81.3686 1066.86 81.445 1067.42 81.5727 1067.95 81.7924 1068.43 82.095 1070.63 83.4961 1071.38 86.3517 1070.16 88.655L1069.35 90.095 1068.92 90.665 1068.34 90.265C1062.92 86.466 1055.63 86.7609 1050.54 90.985L1049.34 91.985 1049.34 90.395 1049.45 88.275C1049.58 86.4973 1050.63 84.9155 1052.21 84.095 1052.54 83.9234 1052.78 83.6107 1052.85 83.245 1053.23 81.3897 1054.86 80.0541 1056.75 80.045L1057.24 80.045C1057.56 80.0489 1057.87 79.9142 1058.09 79.675 1059.01 78.6801 1060.3 78.1084 1061.65 78.095M1061.65 77.095C1060.02 77.0979 1058.47 77.7749 1057.36 78.965 1057.32 78.9796 1057.28 78.9796 1057.24 78.965 1057.08 78.9556 1056.91 78.9556 1056.75 78.965 1056.06 78.9623 1055.38 79.1054 1054.75 79.385 1053.26 80.0424 1052.19 81.3814 1051.87 82.975 1051.86 83.0407 1051.81 83.096 1051.75 83.125 1049.86 84.1115 1048.61 86.0009 1048.45 88.125L1048.34 90.275 1048.34 94.095 1050 92.755 1051.19 91.755C1055.94 87.8308 1062.72 87.5606 1067.76 91.095L1068.36 91.495 1069.15 92.035 1069.72 91.275 1070.14 90.715 1070.14 90.655 1070.14 90.595 1071 89.145C1072.5 86.3934 1071.63 82.9523 1069 81.245 1068.42 80.8803 1067.78 80.6197 1067.11 80.475 1067.03 80.4586 1066.97 80.4064 1066.94 80.335 1065.95 78.3286 1063.89 77.0694 1061.65 77.095Z" fill="#FFFFFF"/><path d="M1068.42 122.385C1066.18 122.378 1064.16 121.008 1063.33 118.925L1062.74 117.365 1062.45 116.145 1063.6 115.825C1069.78 114.193 1074.11 108.628 1074.16 102.235L1074.16 99.235 1076.25 101.375 1077.77 102.785C1079.19 104.157 1079.8 106.166 1079.38 108.095 1079.33 108.312 1079.38 108.541 1079.52 108.715 1080.42 109.842 1080.71 111.331 1080.32 112.715 1080.1 113.445 1079.7 114.109 1079.16 114.645 1079.01 114.789 1078.93 114.996 1078.95 115.205 1079.13 116.685 1078.69 118.173 1077.73 119.315 1076.72 120.52 1075.22 121.215 1073.65 121.215L1073.65 121.215C1073.22 121.225 1072.79 121.185 1072.37 121.095 1072.31 121.085 1072.25 121.085 1072.19 121.095 1072.02 121.096 1071.86 121.148 1071.73 121.245 1071.23 121.632 1070.67 121.926 1070.07 122.115 1069.54 122.29 1068.98 122.381 1068.42 122.385Z" fill="#FFFFFF"/><path d="M1074.68 100.465 1075.91 101.735 1077.45 103.165C1078.74 104.42 1079.28 106.251 1078.89 108.005 1078.82 108.357 1078.91 108.721 1079.13 109.005 1080.39 110.6 1080.25 112.883 1078.81 114.315 1078.54 114.571 1078.41 114.944 1078.46 115.315 1078.64 116.675 1078.24 118.048 1077.35 119.095 1076.43 120.193 1075.08 120.827 1073.65 120.825 1073.26 120.823 1072.87 120.776 1072.49 120.685L1072.19 120.685C1071.92 120.686 1071.65 120.777 1071.43 120.945 1070.56 121.594 1069.51 121.945 1068.43 121.945 1066.39 121.94 1064.56 120.698 1063.8 118.805L1063.22 117.245 1063.06 116.555 1063.74 116.365C1066.66 115.602 1069.27 113.953 1071.21 111.645 1073.41 109.024 1074.64 105.719 1074.67 102.295L1074.67 100.525M1073.67 98.085 1073.67 100.515 1073.67 102.295C1073.58 108.439 1069.41 113.773 1063.47 115.345L1062.78 115.535 1061.86 115.795 1062.07 116.725 1062.23 117.415 1062.23 117.475 1062.23 117.545 1062.86 119.095C1063.76 121.377 1065.97 122.878 1068.42 122.885 1069.71 122.875 1070.97 122.447 1072 121.665 1072.05 121.646 1072.1 121.646 1072.15 121.665L1072.21 121.665C1072.67 121.777 1073.14 121.834 1073.61 121.835 1076.85 121.826 1079.46 119.195 1079.45 115.958 1079.45 115.727 1079.44 115.495 1079.41 115.265 1079.4 115.211 1079.42 115.156 1079.47 115.125 1081.28 113.332 1081.45 110.462 1079.87 108.465 1079.84 108.405 1079.84 108.335 1079.87 108.275 1080.34 106.184 1079.68 104 1078.15 102.505L1076.59 100.995 1075.39 99.765 1073.7 98.025Z" fill="#FFFFFF"/><path d="M1051.59 122.405C1051.05 122.398 1050.52 122.314 1050 122.155 1049.4 121.968 1048.83 121.677 1048.33 121.295 1048.2 121.164 1048.02 121.092 1047.83 121.095L1047.65 121.095C1047.23 121.203 1046.8 121.257 1046.36 121.255 1043.4 121.243 1041.01 118.834 1041.02 115.873 1041.02 115.667 1041.04 115.46 1041.06 115.255 1041.08 115.047 1041 114.842 1040.85 114.695 1040.31 114.185 1039.91 113.544 1039.69 112.835 1039.27 111.434 1039.56 109.915 1040.48 108.775 1040.61 108.598 1040.66 108.371 1040.61 108.155 1040.18 106.237 1040.77 104.232 1042.17 102.855L1043.73 101.395 1045.78 99.285 1045.78 102.285C1045.85 108.683 1050.21 114.234 1056.41 115.825L1057.57 116.135 1057.26 117.405 1056.7 118.915C1055.87 121.012 1053.85 122.393 1051.59 122.405Z" fill="#FFFFFF"/><path d="M1045.3 100.505 1045.3 102.275C1045.4 108.886 1049.9 114.618 1056.3 116.275L1056.99 116.455 1056.8 117.245 1056.25 118.705C1055.5 120.609 1053.66 121.861 1051.61 121.865 1051.11 121.867 1050.61 121.789 1050.13 121.635 1049.58 121.463 1049.07 121.199 1048.61 120.855 1048.39 120.687 1048.12 120.596 1047.85 120.595 1047.75 120.58 1047.65 120.58 1047.55 120.595 1047.17 120.686 1046.77 120.733 1046.38 120.735 1044.96 120.759 1043.61 120.16 1042.67 119.095 1041.8 118.063 1041.39 116.717 1041.55 115.375 1041.6 115.003 1041.46 114.632 1041.19 114.375 1040.72 113.899 1040.38 113.315 1040.19 112.675 1039.83 111.442 1040.08 110.11 1040.87 109.095 1041.09 108.811 1041.17 108.446 1041.1 108.095 1040.7 106.348 1041.24 104.52 1042.52 103.265L1044.07 101.815 1045.3 100.505M1046.3 98.075 1044.58 99.805 1043.35 101.095 1041.84 102.485C1040.3 103.981 1039.65 106.17 1040.12 108.265 1040.15 108.327 1040.15 108.403 1040.12 108.465 1038.55 110.452 1038.71 113.3 1040.5 115.095 1040.54 115.131 1040.56 115.182 1040.56 115.235 1040.37 116.854 1040.86 118.479 1041.91 119.725 1043.02 121.035 1044.64 121.792 1046.36 121.795 1046.83 121.793 1047.31 121.736 1047.77 121.625L1047.83 121.625C1047.89 121.626 1047.95 121.651 1048 121.695 1048.55 122.106 1049.16 122.42 1049.81 122.625 1050.39 122.813 1050.99 122.907 1051.6 122.905 1054.06 122.894 1056.26 121.384 1057.16 119.095L1057.71 117.635 1057.71 117.575 1057.71 117.505 1057.9 116.715 1058.13 115.715 1057.13 115.475 1056.44 115.295C1050.53 113.702 1046.4 108.376 1046.32 102.255L1046.32 100.495 1046.32 98.075Z" fill="#FFFFFF"/><path d="M1060 114.995C1054.75 114.98 1050.03 111.773 1048.09 106.895L1047.93 106.895 1047.93 106.455C1045.57 99.7806 1049.06 92.4545 1055.74 90.0915 1062.41 87.7286 1069.74 91.2237 1072.1 97.8981 1073.08 100.666 1073.08 103.687 1072.1 106.455L1072.1 106.865 1071.94 106.865C1070 111.765 1065.27 114.987 1060 114.995Z" fill="#FFFFFF"/><path d="M1060 89.905C1066.79 89.8889 1072.3 95.3783 1072.32 102.166 1072.32 103.597 1072.08 105.018 1071.59 106.365L1071.59 106.365 1071.59 106.365C1069.26 112.758 1062.19 116.051 1055.8 113.721 1052.38 112.475 1049.69 109.783 1048.44 106.365L1048.44 106.365 1048.44 106.365C1046.14 99.9801 1049.45 92.9371 1055.83 90.6341 1057.17 90.1518 1058.58 89.9051 1060 89.905M1060 88.905C1052.66 88.8947 1046.7 94.8365 1046.69 102.176 1046.69 103.66 1046.94 105.133 1047.42 106.535L1047.42 107.365 1047.75 107.365C1050.62 114.133 1058.43 117.295 1065.2 114.427 1068.38 113.079 1070.91 110.546 1072.26 107.365L1072.58 107.365 1072.58 106.515C1074.96 99.566 1071.26 92.0031 1064.31 89.6227 1062.92 89.1478 1061.47 88.9053 1060 88.905Z" fill="#FFFFFF"/><path d="M1059.91 87.615C1062.93 87.6086 1065.87 88.5379 1068.34 90.275L1068.92 90.675 1069.35 90.105 1070.16 88.655C1071.38 86.3517 1070.63 83.4961 1068.43 82.095 1067.95 81.7924 1067.42 81.5727 1066.86 81.445 1066.49 81.3686 1066.17 81.1253 1066 80.785 1065.18 79.1312 1063.49 78.0874 1061.65 78.095 1060.3 78.1006 1059.01 78.6611 1058.09 79.645 1057.84 79.924 1057.46 80.059 1057.09 80.005 1056.41 79.9383 1055.72 80.0485 1055.09 80.325 1053.9 80.8516 1053.05 81.9217 1052.79 83.195 1052.72 83.5607 1052.48 83.8734 1052.15 84.045 1050.55 84.8746 1049.51 86.479 1049.39 88.275L1049.28 90.395 1049.28 91.985 1050.48 90.985C1053.13 88.7911 1056.47 87.5983 1059.91 87.615ZM1050.91 88.365C1051.02 87.0885 1051.77 85.9564 1052.91 85.365 1053.64 84.9906 1054.15 84.3059 1054.31 83.505 1054.55 82.3408 1055.57 81.5048 1056.76 81.505L1057 81.505C1057.82 81.5906 1058.62 81.2867 1059.18 80.685 1060.45 79.3058 1062.61 79.2207 1063.98 80.4949 1064.29 80.7744 1064.54 81.1065 1064.72 81.475 1065.08 82.2102 1065.76 82.7403 1066.56 82.915 1066.95 82.9975 1067.33 83.1499 1067.67 83.365 1069.23 84.3483 1069.77 86.3677 1068.9 87.995L1068.52 88.675C1065.95 87.0489 1062.97 86.1886 1059.93 86.195 1056.72 86.208 1053.59 87.172 1050.93 88.965Z" fill="#2C5967"/><path d="M1079.13 109.095C1078.91 108.812 1078.82 108.447 1078.89 108.095 1079.28 106.341 1078.74 104.51 1077.45 103.255L1075.91 101.825 1074.68 100.555 1074.68 102.325C1074.65 105.749 1073.42 109.054 1071.22 111.675 1069.28 113.983 1066.67 115.632 1063.75 116.395L1063.07 116.585 1063.23 117.275 1063.81 118.835C1064.57 120.728 1066.4 121.97 1068.44 121.975 1069.52 121.975 1070.57 121.624 1071.44 120.975 1071.74 120.738 1072.13 120.653 1072.5 120.745 1075.1 121.395 1077.74 119.81 1078.39 117.206 1078.54 116.627 1078.57 116.027 1078.5 115.435 1078.45 115.064 1078.58 114.691 1078.85 114.435 1080.29 112.988 1080.42 110.685 1079.13 109.095ZM1078.44 112.285C1078.32 112.694 1078.09 113.065 1077.79 113.365 1077.2 113.933 1076.91 114.749 1077.01 115.565 1077.23 117.429 1075.91 119.123 1074.04 119.347 1073.64 119.396 1073.23 119.371 1072.83 119.275 1072.03 119.088 1071.19 119.267 1070.54 119.765 1070.22 120.009 1069.86 120.195 1069.48 120.315 1067.72 120.871 1065.83 119.977 1065.15 118.265L1064.88 117.545C1067.78 116.617 1070.36 114.882 1072.31 112.545 1074.38 110.072 1075.66 107.04 1076 103.835L1076.41 104.215C1077.32 105.126 1077.7 106.44 1077.41 107.695 1077.25 108.499 1077.47 109.333 1078 109.955 1078.51 110.599 1078.67 111.449 1078.44 112.235Z" fill="#2C5967"/><path d="M1048.8 111.605C1046.59 108.996 1045.36 105.696 1045.32 102.275L1045.32 100.505 1044.07 101.765 1042.52 103.215C1041.22 104.481 1040.69 106.332 1041.1 108.095 1041.17 108.446 1041.09 108.811 1040.87 109.095 1040.06 110.112 1039.8 111.458 1040.16 112.705 1040.35 113.345 1040.69 113.929 1041.16 114.405 1041.43 114.663 1041.56 115.034 1041.52 115.405 1041.2 118.07 1043.1 120.491 1045.76 120.814 1046.35 120.885 1046.95 120.848 1047.52 120.705 1047.89 120.614 1048.28 120.695 1048.58 120.925 1049.04 121.269 1049.55 121.533 1050.1 121.705 1050.58 121.859 1051.08 121.937 1051.58 121.935 1053.63 121.931 1055.47 120.679 1056.22 118.775L1056.77 117.315 1057 116.495 1056.31 116.315C1053.38 115.56 1050.76 113.914 1048.8 111.605ZM1054.87 118.215C1054.19 119.931 1052.3 120.833 1050.54 120.285 1050.16 120.163 1049.8 119.977 1049.48 119.735 1049.01 119.371 1048.43 119.174 1047.83 119.175 1047.61 119.177 1047.4 119.204 1047.19 119.255 1045.94 119.568 1044.61 119.142 1043.78 118.155 1043.17 117.43 1042.89 116.485 1043 115.545 1043.1 114.731 1042.81 113.919 1042.21 113.355 1041.29 112.455 1041.2 111.003 1042 109.995 1042.5 109.354 1042.69 108.52 1042.51 107.725 1042.23 106.476 1042.6 105.169 1043.51 104.265L1044 103.875C1044.7 110.217 1049.06 115.554 1055.14 117.495Z" fill="#2C5967"/><path d="M1071.58 106.395 1071.58 106.395 1071.58 106.395C1073.9 99.9968 1070.58 92.9333 1064.19 90.6183 1057.79 88.3033 1050.72 91.6134 1048.41 98.0116 1047.43 100.72 1047.43 103.687 1048.41 106.395L1048.41 106.395 1048.41 106.395C1050.74 112.788 1057.81 116.081 1064.2 113.751 1067.62 112.505 1070.31 109.813 1071.56 106.395ZM1064.64 105.565 1063.26 106.955 1062.73 107.475C1062.12 109.336 1061.2 111.078 1060 112.625 1058.83 111.123 1057.92 109.432 1057.32 107.625L1056.64 106.945 1055.25 105.555 1054.62 104.925 1049.5 104.925C1049.27 104.03 1049.15 103.109 1049.15 102.185 1049.15 101.326 1049.25 100.469 1049.46 99.635L1054.58 99.635 1055.26 98.945 1056.65 97.565 1057.27 96.945C1057.87 95.0728 1058.8 93.3199 1060 91.765 1061.24 93.3632 1062.18 95.1677 1062.79 97.095L1063.26 97.565 1064.64 98.945 1065.33 99.635 1070.55 99.635C1070.99 101.371 1070.99 103.189 1070.55 104.925L1065.28 104.925ZM1070.08 98.185 1064.59 98.185C1064.05 95.7719 1063.03 93.4926 1061.59 91.485 1065.41 92.0501 1068.64 94.6011 1070.08 98.185ZM1058.4 91.485C1056.96 93.4926 1055.94 95.7719 1055.4 98.185L1049.93 98.185C1051.36 94.6067 1054.59 92.0567 1058.4 91.485ZM1050 106.395 1055.46 106.395C1056 108.74 1057 110.955 1058.4 112.915 1054.66 112.348 1051.48 109.879 1050 106.395ZM1061.61 112.915C1063.01 110.955 1064.01 108.74 1064.55 106.395L1070 106.395C1068.52 109.877 1065.35 112.344 1061.61 112.915Z" fill="#2C5967"/><path d="M1061.05 105.725C1061.25 105.666 1061.44 105.585 1061.62 105.485L1062.49 106.175 1063.87 104.795 1063.18 103.935C1063.27 103.75 1063.35 103.56 1063.41 103.365L1064.51 103.245 1064.51 101.245 1063.41 101.125C1063.35 100.929 1063.27 100.738 1063.18 100.555L1063.87 99.695 1062.49 98.305 1061.62 98.995C1061.44 98.9021 1061.25 98.8251 1061.05 98.765L1060.93 97.665 1059 97.665 1058.87 98.765C1058.68 98.827 1058.49 98.9039 1058.31 98.995L1057.44 98.305 1056 99.735 1056.69 100.595C1056.59 100.778 1056.51 100.969 1056.45 101.165L1055.35 101.285 1055.35 103.285 1056.45 103.405C1056.52 103.6 1056.6 103.791 1056.69 103.975L1056 104.795 1057.38 106.175 1058.25 105.485C1058.43 105.584 1058.62 105.664 1058.81 105.725L1058.94 106.825 1060.89 106.825ZM1060 100.285C1061.1 100.285 1062 101.18 1062 102.285 1062 103.39 1061.1 104.285 1060 104.285 1058.9 104.285 1058 103.39 1058 102.285 1058 101.18 1058.9 100.285 1060 100.285Z" fill="#2C5967"/></g></svg>