<svg width="40" height="42" xmlns="http://www.w3.org/2000/svg" xmlns:xlink="http://www.w3.org/1999/xlink" xml:space="preserve" overflow="hidden"><defs><rect x="640" y="79" width="40" height="42"/></defs><g transform="translate(-640 -79)"><path d="M675.542 86.5277C674.627 85.9481 673.62 85.5284 672.564 85.2867 672.017 85.1694 671.557 84.8016 671.323 84.2939 669.023 79.6691 663.409 77.7845 658.785 80.0845 657.76 80.594 656.838 81.2871 656.064 82.1296 655.762 82.459 655.338 82.6494 654.892 82.6557L654.713 82.6557C654.475 82.6557 654.227 82.6557 653.989 82.6557 652.919 82.6586 651.861 82.8816 650.881 83.311 648.567 84.3257 646.898 86.4106 646.414 88.8905 646.29 89.411 645.935 89.8463 645.451 90.072 642.403 91.6657 640.397 94.7232 640.149 98.1534L640.079 99.0072 640 100.089 651.338 100.089 651.338 102.551 646.086 102.551 646.086 120.849 649.928 120.849 650.226 120.472 652.678 117.364 665.475 117.364 665.475 115.716 672.475 115.716 672.475 100.089 678.352 100.089 678.64 99.5731 678.868 99.1363C681.237 94.7114 679.786 89.2082 675.542 86.5277Z" fill="#FFFFFF"/><path d="M677.727 99.0965 673.12 99.0965 673.12 97.4684 676.734 97.4684C678.302 93.9654 676.735 89.8541 673.232 88.2852 672.81 88.0962 672.37 87.9497 671.919 87.8481 670.624 87.5481 669.532 86.685 668.94 85.4952 667.284 82.1793 663.253 80.8341 659.937 82.4906 659.217 82.8503 658.567 83.3367 658.019 83.9265 657.104 84.9015 655.786 85.3934 654.455 85.2569 653.586 85.1736 652.71 85.3173 651.914 85.6739 650.378 86.34 649.265 87.7158 648.935 89.3572 648.678 90.6627 647.842 91.7805 646.662 92.3951 644.694 93.422 643.302 95.2895 642.879 97.4684L650.702 97.4684 650.702 99.0965 641.072 99.0965 641.132 98.2229C641.368 95.1266 643.195 92.375 645.957 90.9556 646.676 90.5676 647.185 89.8801 647.347 89.0792 648.006 85.6864 651.134 83.349 654.574 83.6783 655.401 83.769 656.222 83.4635 656.788 82.8543 659.937 79.478 665.227 79.2937 668.603 82.4425 669.338 83.1278 669.943 83.9399 670.39 84.8399 670.773 85.598 671.476 86.1444 672.306 86.3291 673.267 86.5383 674.185 86.9147 675.016 87.4411 678.817 89.8442 680.117 94.7746 677.995 98.7391Z" fill="#2C5967"/><path d="M647.079 103.544 647.079 119.856 649.451 119.856 652.192 116.371 664.482 116.371 664.482 103.544ZM648.538 105.182 663.023 105.182 663.023 114.892 651.487 114.892 648.737 118.387 648.538 118.387Z" fill="#2C5967"/><path d="M653.552 106.761 653.552 113.214 659.33 109.988 653.552 106.761Z" fill="#2C5967"/><path d="M667.054 89.516 652.331 89.516 652.331 101.926 653.969 101.926 653.969 91.1541 665.376 91.1541 665.376 95.6317 669.844 95.6317 669.844 113.075 665.982 113.075 665.982 114.723 671.482 114.723 671.482 93.8744ZM667.004 94.0432 667.004 91.9583 669.288 94.0333Z" fill="#2C5967"/></g></svg>