<svg width="45" height="42" xmlns="http://www.w3.org/2000/svg" xmlns:xlink="http://www.w3.org/1999/xlink" xml:space="preserve" overflow="hidden"><defs><clipPath id="clip0"><rect x="904" y="252" width="45" height="42"/></clipPath></defs><g transform="translate(-904 -252)"><path d="M926.5 293.5 924.661 293.5C922.63 293.43 920.607 293.196 918.614 292.801 918.008 292.675 917.41 292.512 916.825 292.311 916.305 292.148 915.805 291.927 915.335 291.651 914.472 291.266 913.892 290.435 913.826 289.492L913.826 274.669 904.83 274.669 904.94 273.15C905.201 269.527 907.324 266.299 910.548 264.624 911.246 264.263 911.742 263.605 911.897 262.835 912.401 260.262 914.134 258.1 916.535 257.048 917.553 256.604 918.652 256.372 919.763 256.368 920.013 256.353 920.263 256.353 920.513 256.368L920.763 256.368C921.446 256.373 922.101 256.094 922.572 255.598 926.272 251.621 932.495 251.396 936.472 255.096 937.33 255.894 938.039 256.84 938.564 257.887 938.918 258.605 939.581 259.121 940.363 259.287 945.791 260.49 949.215 265.864 948.012 271.292 947.812 272.194 947.488 273.065 947.05 273.88L946.65 274.619 939.174 274.619 939.174 289.412C939.167 290.125 938.822 290.793 938.244 291.211 938.053 291.361 937.853 291.497 937.645 291.621 935.526 292.871 931.518 293.28 929.309 293.41 928.389 293.47 927.41 293.5 926.5 293.5Z" fill="#FFFFFF"/><path d="M929.748 253C933.292 252.984 936.535 254.99 938.104 258.167 938.532 259.013 939.318 259.622 940.243 259.826 941.305 260.071 942.318 260.489 943.242 261.066 947.499 263.741 948.965 269.252 946.6 273.69L946.341 274.169 938.674 274.169 938.674 289.462C938.652 290.003 938.383 290.504 937.945 290.822 937.778 290.958 937.601 291.082 937.415 291.191 935.636 292.191 932.297 292.731 929.299 292.921 928.299 292.98 927.35 293 926.5 293L924.681 293C922.666 292.934 920.661 292.704 918.684 292.311 918.098 292.189 917.521 292.032 916.955 291.841 916.469 291.68 916.001 291.472 915.555 291.221 914.85 290.92 914.366 290.256 914.296 289.492L914.296 274.169 905.3 274.169 905.37 273.17C905.627 269.724 907.645 266.655 910.708 265.054 911.551 264.635 912.158 263.855 912.357 262.935 913.053 259.411 916.142 256.871 919.733 256.868 919.963 256.868 920.203 256.868 920.433 256.868L920.733 256.868C921.545 256.893 922.331 256.577 922.902 255.998 924.67 254.094 927.15 253.008 929.748 253M929.748 252C926.873 252.002 924.128 253.201 922.172 255.308 921.795 255.699 921.275 255.919 920.733 255.918L920.533 255.918C920.266 255.903 920 255.903 919.733 255.918 918.553 255.92 917.386 256.165 916.305 256.638 913.752 257.757 911.91 260.058 911.377 262.795 911.228 263.401 910.818 263.91 910.258 264.184 906.899 265.951 904.688 269.325 904.411 273.11L904.341 274.109 904.261 275.169 913.326 275.169 913.326 289.462C913.38 290.587 914.06 291.587 915.085 292.051 915.583 292.34 916.109 292.577 916.655 292.761 917.204 292.94 917.824 293.11 918.504 293.26 920.527 293.66 922.58 293.894 924.641 293.96 925.271 293.96 925.9 293.96 926.5 293.96 927.42 293.96 928.409 293.96 929.369 293.87 932.107 293.71 935.826 293.25 937.915 292.011 938.15 291.876 938.374 291.723 938.584 291.551 939.256 291.047 939.657 290.262 939.674 289.422L939.674 275.169 946.94 275.169 947.22 274.639 947.48 274.159C950.243 269.02 948.317 262.614 943.178 259.851 942.33 259.395 941.423 259.057 940.483 258.847 939.851 258.712 939.314 258.296 939.024 257.717 937.277 254.197 933.678 251.979 929.748 252Z" fill="#FFFFFF"/><path d="M943.242 261.066C942.318 260.489 941.305 260.071 940.243 259.826 939.318 259.622 938.532 259.013 938.104 258.167 936.535 254.99 933.292 252.984 929.748 253 927.15 253.008 924.67 254.094 922.902 255.998 922.263 256.665 921.352 257.001 920.433 256.908 916.605 256.555 913.126 259.139 912.357 262.905 912.172 263.825 911.58 264.611 910.748 265.044 907.676 266.65 905.657 269.733 905.41 273.19L905.34 274.189 913.336 274.189 913.336 272.35 907.339 272.35C907.812 269.913 909.373 267.825 911.577 266.683 912.897 265.997 913.832 264.745 914.116 263.285 914.675 260.405 917.334 258.426 920.253 258.717 921.746 258.876 923.226 258.324 924.251 257.228 927.081 254.191 931.838 254.024 934.874 256.854 935.532 257.467 936.074 258.192 936.475 258.997 937.15 260.335 938.39 261.3 939.854 261.625 940.723 261.811 941.552 262.15 942.302 262.625 945.568 264.682 946.821 268.829 945.241 272.35L939.674 272.35 939.674 274.169 946.341 274.169 946.6 273.69C948.965 269.252 947.499 263.741 943.242 261.066Z" fill="#2C5967"/><path d="M938.674 269.602C938.679 269.572 938.679 269.541 938.674 269.512 938.679 269.472 938.679 269.431 938.674 269.392 938.651 268.84 938.384 268.327 937.945 267.992 937.776 267.855 937.599 267.729 937.415 267.613 935.636 266.543 932.297 266.033 929.299 265.843 928.299 265.783 927.35 265.753 926.5 265.753 925.93 265.753 925.321 265.753 924.681 265.753 922.665 265.816 920.659 266.054 918.684 266.463 918.097 266.583 917.519 266.744 916.955 266.943 916.471 267.111 916.002 267.322 915.555 267.573 914.846 267.896 914.365 268.576 914.296 269.352 914.291 269.392 914.291 269.432 914.296 269.472 914.291 269.501 914.291 269.532 914.296 269.562L914.296 289.462C914.366 290.226 914.85 290.89 915.555 291.191 916.001 291.442 916.469 291.65 916.955 291.811 917.521 292.002 918.098 292.159 918.684 292.281 920.661 292.674 922.666 292.904 924.681 292.97L926.5 292.97C927.35 292.97 928.309 292.97 929.299 292.891 932.297 292.701 935.636 292.211 937.415 291.161 937.601 291.052 937.778 290.928 937.945 290.792 938.383 290.474 938.652 289.973 938.674 289.432L938.674 269.602ZM926.5 267.413C932.867 267.413 936.685 268.692 937.015 269.412 936.685 270.121 932.867 271.411 926.5 271.411 920.133 271.411 916.315 270.131 915.985 269.412 916.315 268.692 920.133 267.413 926.5 267.413ZM915.975 271.411C918.474 272.64 923.252 272.99 926.5 272.99 929.748 272.99 934.496 272.6 937.025 271.341L937.025 276.168C936.785 276.608 933.807 278.088 926.5 278.088 919.193 278.088 916.255 276.648 915.975 276.208ZM937.025 278.198 937.025 282.835C936.785 283.285 933.807 284.764 926.5 284.764 919.193 284.764 916.255 283.255 915.975 282.805L915.975 278.168C918.474 279.397 923.282 279.777 926.5 279.777 929.719 279.777 934.526 279.397 937.025 278.168ZM926.5 291.351C919.193 291.351 916.215 289.872 915.975 289.432L915.975 284.774C918.474 285.984 923.252 286.384 926.5 286.384 929.748 286.384 934.496 286.004 937.025 284.774L937.025 289.432C936.785 289.872 933.807 291.351 926.5 291.351Z" fill="#2C5967"/></g></svg>