<svg width="46" height="43" xmlns="http://www.w3.org/2000/svg" xmlns:xlink="http://www.w3.org/1999/xlink" xml:space="preserve" overflow="hidden"><g transform="translate(-504 -79)"><path d="M527.306 121.499 525.302 120.497 525.302 119.285 520.603 119.285C519.501 119.285 513.871 119.105 511.196 115.588 509.7 113.843 508.811 111.66 508.661 109.366L508.541 105.359 510.995 108.475C511.635 109.228 512.423 109.842 513.31 110.278L513.57 110.388C513.406 109.868 513.097 109.406 512.678 109.056 510.154 106.882 507.419 104.047 506.527 99.2276 505.992 96.1932 506.206 93.0742 507.148 90.1407L507.749 88.4676 509.152 89.5396C510.11 90.2934 511.251 90.7807 512.458 90.9522L512.618 90.9522C513.079 90.9522 513.43 91.0123 513.74 91.0123 514.335 91.0052 514.926 90.9313 515.504 90.7919 515.904 90.7118 516.325 90.6216 516.856 90.5515L517.668 90.4513 516.375 89.73C515.499 89.9639 514.597 90.0818 513.69 90.0806 512.037 90.1126 510.412 89.6522 509.022 88.7582 506.958 87.3275 505.559 85.1236 505.144 82.6468L504.774 80.0019 507.148 81.3544C508.315 82.0692 509.55 82.6666 510.835 83.1377 512.6 83.5826 514.232 84.4451 515.594 85.6524 516.406 86.5345 517.115 87.5058 517.708 88.5478L518.128 88.7982 519.17 87.2554C520.817 85.2685 523.253 84.104 525.833 84.0694L525.943 84.0694C528.463 84.1613 530.886 85.0605 532.856 86.6342 533.561 87.2546 534.181 87.9654 534.699 88.7481 534.845 88.0798 534.793 87.3835 534.549 86.7444L533.126 83.6487 536.262 85.0112C538.216 85.8911 540.018 87.0746 541.602 88.5177 546.822 93.3667 549.357 98.6966 549.357 104.808 549.599 108.2 548.722 111.579 546.862 114.426 545.378 116.683 543.063 118.263 540.42 118.824L538.516 119.135 535.2 119.245 535.2 120.497 533.197 121.499ZM521.565 90.822C522.011 90.9546 522.444 91.1292 522.857 91.343 522.805 91.1262 522.717 90.9197 522.597 90.7318 522.038 89.9236 521.151 89.4032 520.172 89.3092L518.84 89.209Z" fill="#FFFFFF"/><path d="M505.405 80.9236 506.848 81.7852C508.069 82.516 509.357 83.1298 510.695 83.6186 512.378 84.0471 513.937 84.8675 515.243 86.013 516.05 86.8926 516.749 87.8644 517.327 88.9084L521.334 91.2829C522.093 91.4968 522.811 91.8354 523.458 92.2847 523.471 91.6402 523.312 91.0039 522.998 90.4413L522.998 90.4413C522.348 89.5015 521.311 88.9023 520.172 88.8083L518.75 88.7081 519.561 87.5459C521.113 85.6711 523.409 84.5723 525.843 84.5403L525.913 84.5403C528.331 84.6392 530.654 85.506 532.545 87.0149 533.498 87.858 534.278 88.8789 534.84 90.0205L534.99 89.6398C535.374 88.6574 535.374 87.5665 534.99 86.5841L534.098 84.6705 536.032 85.4921C537.937 86.354 539.692 87.514 541.232 88.9285 546.341 93.6773 548.826 98.887 548.826 104.858 549.057 108.152 548.213 111.432 546.421 114.205 545.011 116.346 542.816 117.846 540.31 118.383L538.406 118.684 534.689 118.804 534.689 120.237 533.066 121.048 527.426 121.048 525.803 120.237 525.803 118.834 520.603 118.834C519.601 118.834 514.131 118.674 511.586 115.338 510.141 113.664 509.286 111.563 509.152 109.356L509.082 106.912 510.594 108.836C511.302 109.658 512.176 110.321 513.159 110.779 513.62 110.99 513.991 111.14 514.281 111.24 514.221 110.248 513.779 109.319 513.049 108.645 509.945 106.323 507.805 102.938 507.038 99.1375 506.51 96.1925 506.706 93.1634 507.609 90.311L507.98 89.3092 508.861 89.9704C509.909 90.7718 511.15 91.2832 512.458 91.4532L512.618 91.4532C513.059 91.4532 513.42 91.5133 513.74 91.5133 514.372 91.5089 515 91.4315 515.614 91.2829 515.984 91.2027 516.405 91.1226 516.936 91.0424 517.503 90.9571 518.076 90.9137 518.649 90.9122 518.97 90.9122 519.281 90.9122 519.571 90.9122L516.435 89.1589C515.542 89.4124 514.618 89.5405 513.69 89.5396 512.141 89.5788 510.615 89.1606 509.302 88.3374 507.355 86.9924 506.033 84.9191 505.635 82.5867L505.405 80.9236M504.142 79 504.413 81.0538 504.633 82.7169C504.987 84.7157 505.933 86.5621 507.348 88.0168L507.018 88.9285 506.647 90.0205C505.684 93.0398 505.474 96.2489 506.036 99.3679 506.372 101.23 507.052 103.014 508.04 104.628L508.11 106.992 508.15 109.387C508.306 111.798 509.241 114.094 510.815 115.929 513.64 119.616 519.451 119.796 520.593 119.796L524.791 119.796 524.791 120.798 525.352 121.078 526.975 121.88 527.185 121.99 533.317 121.99 533.527 121.88 535.2 121.078 535.761 120.798 535.761 119.726 538.506 119.636 538.637 119.636 540.54 119.325C543.33 118.761 545.775 117.096 547.323 114.706 549.221 111.773 550.124 108.305 549.898 104.818 549.898 98.5564 547.313 93.1062 541.983 88.157 540.36 86.6602 538.506 85.4355 536.493 84.5303L534.559 83.7088 532.165 82.7069 533.197 85.0112 534.088 86.9247C534.131 87.0173 534.161 87.1149 534.178 87.2153 533.863 86.8634 533.528 86.5289 533.177 86.2134 531.113 84.5622 528.574 83.6175 525.933 83.5184L525.813 83.5184C523.065 83.5795 520.487 84.8611 518.78 87.0149L518.018 88.127C517.429 87.1302 516.733 86.1998 515.944 85.3518 514.509 84.0824 512.792 83.1724 510.935 82.6969 509.687 82.2263 508.489 81.6323 507.358 80.9236L505.926 80.062 504.142 79Z" fill="#FFFFFF"/><path d="M509.302 88.3374C510.611 89.1747 512.137 89.6069 513.69 89.5797 514.618 89.5806 515.542 89.4524 516.435 89.199L517.327 88.9084 516.916 88.0669C516.468 87.3001 515.903 86.6073 515.243 86.013 513.937 84.8675 512.378 84.0471 510.695 83.6186 509.357 83.1298 508.069 82.516 506.848 81.7852L505.405 80.9236 505.635 82.5867C506.039 84.917 507.359 86.9884 509.302 88.3374ZM510.254 85.1715C511.676 85.535 512.996 86.2205 514.111 87.1752 514.261 87.3255 514.532 87.596 514.802 87.8966 513.197 88.1666 511.548 87.8539 510.154 87.0149 509.122 86.2957 508.31 85.3036 507.809 84.1496 508.594 84.5586 509.412 84.9004 510.254 85.1715Z" fill="#2C5967"/><path d="M523.008 102.514C518.888 106.476 518.761 113.028 522.723 117.147 523.008 117.443 523.311 117.722 523.629 117.983L523.859 118.163 536.433 118.163 536.653 117.983C540.869 114.572 541.715 108.476 538.587 104.047L537.535 105.379C538.273 106.551 538.716 107.885 538.827 109.266L536.533 109.266 536.533 110.889 538.807 110.889C538.627 112.619 537.929 114.253 536.803 115.578L535.29 114.065 534.719 114.636 534.148 115.207 535.501 116.56 524.731 116.56 526.093 115.207 525.512 114.636 524.941 114.065 523.458 115.558C522.336 114.243 521.638 112.619 521.455 110.899L523.579 110.899 523.579 109.256 521.485 109.256C521.622 107.496 522.297 105.821 523.418 104.457L524.941 105.99 525.512 105.409 526.093 104.838 524.55 103.305C525.879 102.179 527.517 101.481 529.249 101.301L529.249 103.596 530.872 103.596 530.872 101.291C532.257 101.405 533.594 101.852 534.769 102.594L536.102 101.542C532.064 98.6848 526.564 99.1056 523.008 102.544Z" fill="#2C5967"/><path d="M541.262 88.8784C539.719 87.4679 537.964 86.3084 536.062 85.442L534.128 84.6205 535.02 86.534C535.404 87.5164 535.404 88.6073 535.02 89.5897L534.87 89.9704C534.308 88.8288 533.528 87.8079 532.575 86.9648 530.693 85.4745 528.383 84.625 525.983 84.5403L525.883 84.5403C523.45 84.5723 521.153 85.6711 519.601 87.5459L518.79 88.7081 520.172 88.8183C521.293 88.9034 522.316 89.4884 522.958 90.4112L522.958 90.4112C523.272 90.9739 523.431 91.6102 523.418 92.2547 521.503 91.0093 519.175 90.5667 516.936 91.0224 516.405 91.1025 515.984 91.1827 515.614 91.2628 514.63 91.5009 513.612 91.5586 512.608 91.4331L512.508 91.4331C511.167 91.2745 509.895 90.7513 508.831 89.9203L507.95 89.2591 507.579 90.2609C506.676 93.1133 506.48 96.1424 507.008 99.0874 507.775 102.888 509.915 106.273 513.019 108.595 513.749 109.268 514.191 110.198 514.251 111.19 513.961 111.09 513.59 110.939 513.129 110.729 512.168 110.263 511.314 109.601 510.625 108.785L509.092 106.912 509.152 109.356C509.295 111.549 510.15 113.635 511.586 115.298 514.121 118.634 519.601 118.794 520.603 118.794L520.763 118.794 522.547 118.794 521.334 117.472C518.593 114.248 517.769 109.812 519.17 105.82 520.783 101.28 525.113 98.2761 529.93 98.356 532.552 98.2987 535.122 99.0932 537.254 100.62L538.536 99.6184C536.083 97.7084 533.049 96.6971 529.94 96.753 526.211 96.6687 522.635 98.2385 520.172 101.041 516.196 105.505 515.727 112.088 519.03 117.071 517.197 116.87 514.311 116.239 512.839 114.286L512.839 114.226C512.155 113.46 511.628 112.568 511.286 111.601 511.656 111.853 512.048 112.071 512.458 112.252 513.249 112.654 514.092 112.944 514.963 113.113L515.734 113.194 515.844 112.422C516.08 110.564 515.418 108.704 514.061 107.413 511.262 105.312 509.325 102.263 508.611 98.8369 508.205 96.5087 508.28 94.122 508.831 91.8239 509.924 92.5225 511.174 92.9357 512.468 93.0261L512.468 93.0261C513.62 93.1673 514.787 93.0994 515.914 92.8257 516.275 92.7556 516.656 92.6754 517.137 92.6053 521.755 91.9341 523.338 94.3385 523.398 94.4387L524.4 96.0918 524.871 94.2083C524.871 94.0981 525.542 91.4532 524.37 89.5797 523.797 88.6297 522.901 87.9182 521.845 87.576 523.036 86.7335 524.445 86.2533 525.903 86.1934 527.906 86.2747 529.834 86.9747 531.423 88.1971 532.645 89.1548 533.495 90.508 533.828 92.0242L534.018 93.8576 535.2 92.435C535.749 91.7552 536.176 90.9859 536.463 90.1608 536.764 89.372 536.9 88.5298 536.863 87.6862 538.066 88.3515 539.188 89.1515 540.21 90.0706 544.928 94.4988 547.223 99.3178 547.223 104.808 547.455 107.789 546.701 110.763 545.079 113.274 544.29 114.469 543.197 115.434 541.913 116.069 543.532 112.735 543.794 108.903 542.644 105.379 542.148 104.003 541.431 102.717 540.52 101.572L539.518 102.864C540.205 103.804 540.755 104.836 541.151 105.93 543.225 111.651 539.608 116.951 539.578 117.051L538.456 118.624 540.36 118.323C542.866 117.786 545.061 116.286 546.471 114.145 548.263 111.372 549.107 108.092 548.876 104.798 548.856 98.8369 546.371 93.6272 541.262 88.8784Z" fill="#2C5967"/><path d="M528.418 111.991C528.874 112.384 529.458 112.598 530.061 112.592 530.488 112.594 530.908 112.487 531.283 112.282 532.206 111.776 532.714 110.747 532.555 109.707L540.57 99.5382 530.441 107.553 530.441 107.553C529.574 107.415 528.698 107.738 528.127 108.405 528.031 108.512 527.947 108.63 527.877 108.755 527.236 109.82 527.465 111.193 528.418 111.991ZM529.369 109.477C529.541 109.273 529.794 109.156 530.061 109.156 530.278 109.154 530.489 109.233 530.652 109.377 531.035 109.703 531.082 110.278 530.755 110.662 530.429 111.045 529.854 111.092 529.47 110.765 529.087 110.439 529.04 109.863 529.367 109.48 529.367 109.479 529.369 109.478 529.369 109.477Z" fill="#2C5967"/><path d="M527.426 119.375 525.803 119.375 525.803 120.187 527.426 120.998 527.426 120.998 533.096 120.998 533.096 120.998 534.719 120.187 534.719 119.375 533.096 119.375 527.426 119.375Z" fill="#2C5967"/></g></svg>