<svg width="42" height="42" xmlns="http://www.w3.org/2000/svg" xmlns:xlink="http://www.w3.org/1999/xlink" xml:space="preserve" overflow="hidden"><g transform="translate(-372 -79)"><path d="M374.67 120.5C373.48 120.5 372.5 119.53 372.5 118.33L372.5 81.67C372.5 80.48 373.47 79.5 374.67 79.5L411.34 79.5C412.53 79.5 413.51 80.47 413.51 81.67L413.51 118.34C413.51 119.53 412.54 120.51 411.34 120.51L374.67 120.51Z" fill="#FFFFFF"/><path d="M411.33 80C412.25 80 413 80.75 413 81.67L413 118.34C413 119.26 412.25 120.01 411.33 120.01L374.67 120.01C373.75 120 373 119.25 373 118.33L373 81.67C373 80.75 373.75 80 374.67 80L411.33 80M411.33 79 374.67 79C373.2 79 372 80.2 372 81.67L372 118.34C372 119.8 373.2 121 374.67 121L411.34 121C412.8 121 414 119.8 414 118.33L414 81.67C414 80.2 412.8 79 411.33 79L411.33 79Z" fill="#FFFFFF"/><path d="M411.33 80 374.67 80C373.75 80 373 80.75 373 81.67L373 118.34C373 119.25 373.75 120 374.67 120L411.34 120C412.26 120 413.01 119.25 413.01 118.33L413.01 81.67C413 80.75 412.25 80 411.33 80ZM411.52 118.33C411.52 118.43 411.44 118.52 411.33 118.52L374.67 118.52C374.57 118.52 374.48 118.44 374.48 118.33L374.48 81.67C374.48 81.57 374.56 81.48 374.67 81.48L411.34 81.48C411.44 81.48 411.53 81.56 411.53 81.67L411.53 118.33Z" fill="#2C5967"/><path d="M377.44 115.37 408.55 115.37 408.55 106.48 377.44 106.48 377.44 115.37ZM378.93 107.96 407.08 107.96 407.08 113.89 378.93 113.89 378.93 107.96Z" fill="#2C5967"/><path d="M404.85 110.93C404.85 111.543 404.353 112.04 403.74 112.04 403.127 112.04 402.63 111.543 402.63 110.93 402.63 110.317 403.127 109.82 403.74 109.82 404.353 109.82 404.85 110.317 404.85 110.93Z" fill="#2C5967"/><path d="M377.44 93.33 408.55 93.33 408.55 84.44 377.44 84.44 377.44 93.33ZM378.93 85.93 407.08 85.93 407.08 91.86 378.93 91.86 378.93 85.93Z" fill="#2C5967"/><path d="M404.85 88.89C404.85 89.503 404.353 90 403.74 90 403.127 90 402.63 89.503 402.63 88.89 402.63 88.277 403.127 87.78 403.74 87.78 404.353 87.78 404.85 88.277 404.85 88.89Z" fill="#2C5967"/><path d="M377.44 104.44 408.55 104.44 408.55 95.55 377.44 95.55 377.44 104.44ZM378.93 97.04 407.08 97.04 407.08 102.97 378.93 102.97 378.93 97.04Z" fill="#2C5967"/><path d="M404.85 100C404.85 100.613 404.353 101.11 403.74 101.11 403.127 101.11 402.63 100.613 402.63 100 402.63 99.387 403.127 98.89 403.74 98.89 404.353 98.89 404.85 99.387 404.85 100Z" fill="#2C5967"/></g></svg>