<svg width="45" height="42" xmlns="http://www.w3.org/2000/svg" xmlns:xlink="http://www.w3.org/1999/xlink" xml:space="preserve" overflow="hidden"><g transform="translate(-104 -426)"><path d="M137.828 467.162C132.164 464.34 128.783 459.903 128.504 455.027L128.504 450.769 104.742 450.769 104.742 426.499 139.642 426.499 139.642 442.204 148.258 445.943 148.258 455.037C147.979 459.953 144.578 464.38 138.934 467.202L138.386 467.481Z" fill="#FFFFFF"/><path d="M139.144 426.997 139.144 442.533 147.779 446.232 147.779 454.997C147.51 459.704 144.219 463.971 138.735 466.714L138.406 466.883 138.077 466.714C132.593 463.971 129.292 459.734 129.023 454.997L129.023 450.271 105.241 450.271 105.241 426.997 139.144 426.997M140.141 426 104.244 426 104.244 451.268 128.006 451.268 128.006 454.917 128.006 454.917 128.006 454.977C128.305 460.073 131.795 464.65 137.608 467.561L137.937 467.721 138.386 467.95 138.825 467.721 139.154 467.561C144.967 464.65 148.467 460.073 148.756 455.007L148.756 445.574 148.158 445.315 140.141 441.875 140.141 426Z" fill="#FFFFFF"/><path d="M106.717 428.473 137.648 428.473 137.648 441.326 138.386 441.007 139.124 441.326 139.124 426.997 105.241 426.997 105.241 450.271 127.896 450.271 127.896 448.795 106.717 448.795 106.717 428.473Z" fill="#2C5967"/><path d="M138.386 442.214 129.003 446.202 129.003 454.967C129.272 459.674 132.573 463.942 138.057 466.684L138.386 466.853 138.715 466.684C144.199 463.942 147.49 459.704 147.759 454.967L147.759 446.232ZM146.283 454.917C146.064 458.766 143.472 462.316 139.124 464.809L139.124 452.285 137.648 452.285 137.648 464.829C133.301 462.336 130.668 458.786 130.479 454.937L130.479 447.199 137.648 444.128 137.648 450.709 139.144 450.709 139.144 444.128 146.303 447.199Z" fill="#2C5967"/><path d="M125.234 433.449 124.187 434.486 126.939 437.238 132.224 431.953 131.187 430.906 126.939 435.154 125.234 433.449Z" fill="#2C5967"/><path d="M130.887 443.51 128.953 441.585 130.887 439.651 129.85 438.604 127.916 440.538 125.981 438.604 124.934 439.651 126.869 441.585 124.934 443.51 125.981 444.557 127.916 442.622 129.85 444.557 130.887 443.51Z" fill="#2C5967"/><path d="M120.198 445.544 120.198 442.313C120.198 440.915 119.064 439.781 117.665 439.781L112.679 439.781C111.281 439.781 110.147 440.915 110.147 442.313L110.147 445.544 111.573 445.544 111.573 442.313C111.573 441.724 112.05 441.246 112.64 441.246L117.625 441.246C118.209 441.246 118.682 441.72 118.682 442.303 118.682 442.307 118.682 442.31 118.682 442.313L118.682 445.544Z" fill="#2C5967"/><path d="M115.152 438.584C117.047 438.584 118.583 437.048 118.583 435.154 118.583 433.259 117.047 431.724 115.152 431.724 113.258 431.724 111.722 433.259 111.722 435.154 111.722 437.048 113.258 438.584 115.152 438.584ZM115.152 433.199C116.254 433.199 117.147 434.092 117.147 435.194 117.147 436.295 116.254 437.188 115.152 437.188 114.051 437.188 113.158 436.295 113.158 435.194 113.158 434.092 114.051 433.199 115.152 433.199Z" fill="#2C5967"/></g></svg>