<svg width="42" height="38" xmlns="http://www.w3.org/2000/svg" xmlns:xlink="http://www.w3.org/1999/xlink" xml:space="preserve" overflow="hidden"><defs><rect x="772" y="428" width="42" height="38"/></defs><g transform="translate(-772 -428)"><path d="M801.794 465.505C799.946 465.519 798.435 464.032 798.421 462.183 798.417 461.663 798.534 461.149 798.764 460.682 798.861 460.475 798.981 460.279 799.12 460.097L799.12 460.097C797.934 460.591 796.662 460.844 795.377 460.84 790.674 460.836 786.622 457.526 785.681 452.917 785.635 452.711 785.598 452.503 785.572 452.293L785.572 452.293C784.921 454.024 782.99 454.898 781.26 454.247 779.905 453.737 779.031 452.413 779.095 450.966 779.099 450.371 779.26 449.787 779.561 449.273L772.628 449.273 772.807 447.807C773.078 444.426 775.084 441.427 778.105 439.884 778.745 439.532 779.184 438.903 779.293 438.181 779.986 434.65 783.083 432.104 786.682 432.11 786.909 432.11 787.147 432.11 787.375 432.11L787.612 432.11C788.243 432.117 788.847 431.858 789.276 431.397 791.023 429.513 793.472 428.437 796.04 428.426 799.538 428.414 802.738 430.392 804.29 433.526 804.593 434.231 805.209 434.752 805.954 434.932 807.009 435.163 808.015 435.579 808.925 436.161 813.117 438.805 814.549 444.243 812.203 448.609L811.827 449.312 805.122 449.312C805.228 449.871 805.281 450.438 805.28 451.006 805.277 454.063 803.863 456.946 801.448 458.82L801.448 458.869 801.755 458.869 802.042 458.869C802.243 458.886 802.442 458.923 802.636 458.978 804.419 459.467 805.469 461.308 804.981 463.091 804.584 464.541 803.268 465.549 801.765 465.554Z" fill="#FFFFFF"/><path d="M796.04 428.99C799.354 428.977 802.387 430.852 803.854 433.823 804.247 434.611 804.975 435.179 805.835 435.368 806.839 435.594 807.796 435.99 808.667 436.537 812.653 439.033 814.015 444.196 811.777 448.332L811.539 448.778 804.518 448.778C805.457 452.54 803.97 456.491 800.784 458.701L801.23 459.414C801.412 459.375 801.598 459.355 801.784 459.355L802.032 459.355C802.203 459.37 802.372 459.4 802.537 459.444 804.057 459.858 804.954 461.425 804.54 462.945 804.126 464.465 802.558 465.362 801.039 464.948 799.519 464.534 798.622 462.967 799.036 461.447 799.162 460.984 799.402 460.561 799.734 460.216L799.309 459.543C794.61 461.722 789.034 459.68 786.854 454.981 786.543 454.31 786.312 453.604 786.167 452.878 786.097 452.551 786.048 452.22 786.018 451.887L785.206 451.887C784.714 453.384 783.102 454.198 781.606 453.706 780.109 453.214 779.295 451.602 779.787 450.106 779.955 449.594 780.265 449.14 780.68 448.797L773.232 448.797 773.302 447.886C773.524 444.667 775.398 441.793 778.254 440.29 779.029 439.892 779.583 439.164 779.759 438.31 780.199 436.054 781.716 434.156 783.819 433.229 784.713 432.84 785.677 432.638 786.652 432.635L787.305 432.635 787.583 432.635C788.334 432.625 789.048 432.31 789.563 431.763 791.24 429.974 793.589 428.968 796.04 428.99M796.04 428C793.338 428.002 790.758 429.129 788.92 431.11 788.581 431.47 788.107 431.671 787.612 431.664L787.424 431.664C787.177 431.65 786.929 431.65 786.682 431.664 782.849 431.671 779.554 434.382 778.808 438.141 778.694 438.705 778.33 439.186 777.818 439.449 774.662 441.097 772.581 444.257 772.311 447.807L772.242 448.718 772.163 449.788 778.838 449.788C778.708 450.174 778.641 450.579 778.64 450.986 778.635 453.108 780.352 454.832 782.474 454.837 783.554 454.839 784.585 454.387 785.315 453.591 786.514 458.17 790.644 461.369 795.377 461.385 796.307 461.383 797.232 461.26 798.13 461.018 797.799 462.042 797.918 463.158 798.457 464.089 799.143 465.284 800.416 466.021 801.794 466.02 802.462 466.023 803.118 465.848 803.696 465.515 805.538 464.462 806.179 462.114 805.125 460.272 805.124 460.27 805.123 460.268 805.122 460.266 804.619 459.379 803.78 458.733 802.795 458.473L802.626 458.424C804.635 456.47 805.771 453.788 805.776 450.986 805.773 450.585 805.747 450.185 805.696 449.788L812.134 449.788 812.411 449.273 812.649 448.827C815.268 444.026 813.499 438.01 808.698 435.39 807.871 434.939 806.983 434.608 806.063 434.408 805.497 434.287 805.012 433.925 804.736 433.417 803.109 430.099 799.735 427.997 796.04 428Z" fill="#FFFFFF"/><path d="M808.677 436.537C807.803 435.989 806.842 435.593 805.835 435.368 804.975 435.179 804.247 434.611 803.854 433.823 802.387 430.852 799.354 428.977 796.04 428.99 793.613 428.995 791.297 430.007 789.643 431.783 789.05 432.414 788.195 432.729 787.335 432.635 786.144 432.528 784.946 432.722 783.849 433.199 781.746 434.126 780.229 436.024 779.789 438.28 779.612 439.134 779.059 439.862 778.283 440.261 775.428 441.763 773.554 444.638 773.332 447.857L773.232 448.797 778.986 448.797C779.472 448.007 780.207 447.4 781.076 447.074L775.134 447.074C775.582 444.801 777.04 442.855 779.095 441.786 780.332 441.145 781.208 439.974 781.472 438.607 781.808 436.899 782.959 435.464 784.552 434.764 785.38 434.399 786.286 434.249 787.187 434.328 788.569 434.473 789.939 433.964 790.891 432.952 792.222 431.521 794.086 430.707 796.04 430.704 798.706 430.683 801.147 432.192 802.319 434.586 802.949 435.839 804.109 436.741 805.479 437.042 806.293 437.235 807.068 437.57 807.766 438.032 810.816 439.963 811.981 443.842 810.5 447.134L805.32 447.134C805.534 447.674 805.707 448.23 805.835 448.797L811.539 448.797 811.777 448.352C814.029 444.213 812.671 439.037 808.677 436.537Z" fill="#2C5967"/><path d="M801.23 459.365 800.784 458.701C805.034 455.74 806.079 449.894 803.118 445.645 802.484 444.735 801.694 443.945 800.784 443.311L801.161 442.608C801.375 442.658 801.594 442.685 801.814 442.687L802.062 442.687C802.232 442.667 802.4 442.637 802.567 442.598 804.093 442.188 804.998 440.618 804.588 439.091 804.178 437.564 802.608 436.66 801.081 437.07 799.555 437.48 798.65 439.05 799.06 440.577 799.105 440.744 799.165 440.907 799.239 441.063 799.361 441.312 799.514 441.546 799.695 441.756L799.299 442.479C798.078 441.918 796.75 441.627 795.407 441.627 790.936 441.632 787.086 444.783 786.196 449.164 786.127 449.491 786.078 449.822 786.048 450.154L785.236 450.154C784.768 448.644 783.165 447.799 781.655 448.267 780.145 448.735 779.3 450.338 779.768 451.848 780.235 453.358 781.838 454.203 783.348 453.735 784.25 453.456 784.956 452.75 785.236 451.848L786.028 451.848C786.058 452.181 786.107 452.511 786.176 452.838 787.194 457.917 792.137 461.209 797.215 460.191 797.941 460.046 798.647 459.815 799.318 459.503L799.744 460.177C799.529 460.4 799.351 460.658 799.219 460.939 798.541 462.355 799.139 464.052 800.555 464.731 800.945 464.918 801.372 465.013 801.804 465.01 803.38 465.008 804.656 463.73 804.654 462.155 804.653 460.868 803.79 459.741 802.547 459.404 802.382 459.36 802.213 459.33 802.042 459.315 801.77 459.291 801.497 459.308 801.23 459.365ZM800.784 439.211C800.988 438.854 801.364 438.632 801.775 438.627 801.974 438.627 802.169 438.682 802.339 438.785 802.853 439.158 802.967 439.876 802.594 440.389 802.276 440.828 801.696 440.985 801.2 440.766 800.67 440.441 800.487 439.757 800.784 439.211ZM803.082 450.966C803.087 455.222 799.642 458.676 795.387 458.681 791.131 458.687 787.677 455.242 787.672 450.986 787.666 446.731 791.112 443.277 795.367 443.271 795.37 443.271 795.374 443.271 795.377 443.271 799.626 443.277 803.071 446.717 803.082 450.966ZM782.482 452.125C781.842 452.125 781.324 451.606 781.324 450.966 781.324 450.326 781.842 449.808 782.482 449.808 783.122 449.808 783.641 450.326 783.641 450.966 783.647 451.601 783.137 452.12 782.502 452.125 782.496 452.125 782.489 452.125 782.482 452.125ZM802.785 461.583C803.057 462.156 802.812 462.841 802.239 463.113 801.732 463.354 801.125 463.193 800.804 462.732 800.487 462.182 800.675 461.48 801.225 461.163 801.398 461.062 801.594 461.009 801.794 461.009 802.204 461.008 802.582 461.227 802.785 461.583Z" fill="#2C5967"/><path d="M794.387 448.996 793.238 450.144 794.436 451.353 797.595 448.203 794.436 445.044 793.238 446.252 794.228 447.292 790.168 447.292C789.799 447.815 789.509 448.389 789.306 448.996Z" fill="#2C5967"/><path d="M796.318 453.244 797.486 452.076 796.288 450.867 793.139 454.017 796.288 457.176 797.486 455.968 796.496 454.977 800.388 454.977C800.806 454.465 801.14 453.89 801.378 453.274Z" fill="#2C5967"/></g></svg>