<svg width="37" height="42" xmlns="http://www.w3.org/2000/svg" xmlns:xlink="http://www.w3.org/1999/xlink" xml:space="preserve" overflow="hidden"><defs><rect x="908" y="426" width="37" height="42"/></defs><g transform="translate(-908 -426)"><path d="M935.444 467.428C929.016 467.428 927.302 465.744 927.023 465.405L926.754 465.076 926.754 460.692 915.015 460.692C912.793 460.532 911.119 459.745 909.983 458.35 908.13 456.088 908.538 453.168 908.538 453.138 909.066 450.059 910.82 448.505 912.205 447.727 912.853 447.369 913.55 447.11 914.268 446.94 915.484 443.801 917.915 443.094 918.393 442.984 919.011 442.795 919.679 442.695 920.347 442.695 921.104 442.695 921.851 442.815 922.549 443.054 922.35 442.884 922.16 442.665 921.971 442.416 920.785 440.822 920.905 438.769 921.214 437.344 921.283 436.985 921.383 436.626 921.503 436.278 921.552 436.158 921.592 436.068 921.642 435.979 921.662 435.949 921.672 435.929 921.682 435.899 921.572 435.809 921.513 435.75 921.453 435.68 921.174 435.341 920.935 434.992 920.725 434.633 920.426 434.105 920.167 433.557 919.958 432.989L919.759 432.551C919.699 432.401 919.639 432.242 919.599 432.082 919.569 431.973 919.529 431.863 919.49 431.764 919.34 431.524 919.131 431.245 918.892 431.006 918.782 430.887 918.722 430.827 918.663 430.747 918.613 430.687 918.553 430.618 918.483 430.548 917.885 429.9 916.899 428.854 917.467 427.678 917.676 427.21 918.085 426.851 918.583 426.691 918.822 426.612 919.091 426.572 919.38 426.572 920.556 426.572 921.911 427.21 922.609 427.588 922.758 427.678 922.888 427.768 923.017 427.867 923.107 427.937 923.197 427.997 923.296 428.057 924.761 428.076 926.236 428.435 927.551 429.073 930.142 430.378 932.394 432.312 934.078 434.663 934.337 435.042 934.547 435.441 934.726 435.849 934.816 436.039 934.905 436.248 935.015 436.457 935.553 437.523 936.022 438.38 936.45 439.078 936.53 439.207 936.59 439.327 936.649 439.447 936.779 439.696 936.918 439.925 937.098 440.134 937.337 440.304 937.596 440.413 937.875 440.473 938.114 440.543 938.294 440.602 938.443 440.662 939.071 440.921 939.629 441.18 940.157 441.469 941.323 442.057 942.379 442.845 943.286 443.781 943.645 444.14 943.595 444.479 943.535 444.658 943.386 445.117 942.867 445.196 942.529 445.256L942.309 445.296C942.001 445.356 941.682 445.406 941.363 445.426 941.084 445.445 940.815 445.485 940.546 445.535L940.476 445.555C940.645 445.645 940.805 445.724 940.934 445.794L941.104 445.884C941.283 445.974 941.443 446.053 941.572 446.133 942.309 446.572 942.967 447.12 943.545 447.767L944.023 448.146C944.273 448.355 944.332 448.465 944.352 448.505 944.452 448.684 944.482 448.933 944.492 449.013 944.502 449.292 944.402 449.72 944.392 449.77 944.332 450.019 944.123 450.587 944.043 450.807L944.043 465.256 943.565 465.615C943.475 465.674 941.064 467.428 935.444 467.428ZM926.495 444.758C927.422 444.758 928.279 444.957 929.056 445.346L929.056 445.326C928.388 445.037 927.761 444.529 927.242 444.11L927.163 444.04C926.495 443.542 925.937 442.954 925.499 442.257 925.499 442.257 925.499 442.257 925.499 442.247 925.389 442.755 925.16 443.283 924.472 443.512 924.283 443.582 924.083 443.612 923.884 443.612 923.854 443.612 923.814 443.612 923.785 443.612 924.362 443.941 924.891 444.359 925.359 444.848 925.748 444.788 926.126 444.758 926.495 444.758Z" fill="#FFFFFF"/><path d="M919.38 427.07C920.466 427.07 921.782 427.708 922.37 428.027 922.479 428.096 922.589 428.166 922.698 428.256 922.838 428.375 922.997 428.475 923.167 428.555 924.612 428.565 926.027 428.894 927.322 429.521 929.843 430.787 932.016 432.66 933.66 434.962 933.889 435.311 934.088 435.67 934.258 436.058 934.357 436.268 934.457 436.487 934.567 436.706 935.075 437.713 935.563 438.609 936.022 439.357 936.091 439.466 936.151 439.586 936.211 439.696 936.35 439.995 936.54 440.274 936.759 440.513 937.058 440.742 937.407 440.891 937.775 440.971 937.955 441.021 938.124 441.071 938.254 441.131 938.872 441.39 939.41 441.639 939.928 441.918 941.044 442.486 942.07 443.233 942.937 444.14 943.077 444.28 943.117 444.399 943.077 444.499 943.017 444.688 942.708 444.728 942.439 444.768L942.23 444.808C941.931 444.867 941.632 444.907 941.333 444.927 941.034 444.947 940.745 444.987 940.456 445.047L940.356 445.067C940.018 445.156 939.679 445.226 939.34 445.276 939.539 445.645 940.227 445.984 940.775 446.253 940.974 446.352 941.173 446.452 941.323 446.542 942.02 446.96 942.648 447.478 943.186 448.086L943.445 448.295C943.545 448.365 943.715 448.515 943.715 448.515 943.715 448.515 943.894 448.664 943.934 448.734 943.974 448.794 944.003 448.943 944.003 449.023 944.013 449.182 943.954 449.491 943.914 449.641 943.844 449.91 943.555 450.707 943.555 450.707L943.555 464.997 943.286 465.206C943.186 465.276 940.884 466.93 935.444 466.93 929.126 466.93 927.571 465.276 927.412 465.086L927.252 464.897 927.252 460.194 915.015 460.194C912.973 460.044 911.408 459.317 910.362 458.041 908.698 455.998 909.006 453.328 909.026 453.218L909.026 453.178C909.525 450.328 911.159 448.883 912.444 448.166 913.132 447.787 913.869 447.518 914.637 447.369 915.733 444.22 918.134 443.552 918.503 443.472 919.111 443.293 919.729 443.203 920.347 443.203 922.17 443.203 923.934 443.981 925.17 445.386 925.648 445.296 926.086 445.246 926.495 445.246 927.79 445.246 928.787 445.665 929.554 446.223L929.554 444.967C928.817 444.748 928.079 444.13 927.482 443.652L927.442 443.622C926.834 443.173 926.316 442.615 925.907 441.978 925.728 441.659 925.548 441.36 925.359 441.041L925.239 440.822C925.229 440.852 925.229 440.891 925.219 440.921 925.21 440.981 925.2 441.051 925.18 441.111 925.13 441.32 925.09 441.539 925.07 441.758 924.99 442.316 924.911 442.845 924.303 443.054 924.163 443.104 924.014 443.134 923.874 443.134 923.356 443.134 922.858 442.795 922.36 442.137 921.283 440.692 921.403 438.799 921.682 437.464 921.752 437.125 921.841 436.786 921.951 436.447 921.981 436.377 922.011 436.308 922.051 436.238 922.13 436.118 922.18 435.979 922.22 435.839 922.18 435.7 922.091 435.59 921.971 435.51 921.911 435.461 921.851 435.411 921.792 435.351 921.542 435.052 921.323 434.733 921.134 434.394 920.855 433.896 920.606 433.368 920.406 432.83L920.207 432.341C920.147 432.212 920.097 432.072 920.068 431.933 920.028 431.793 919.988 431.664 919.928 431.534 919.729 431.205 919.5 430.907 919.24 430.637 919.171 430.558 919.111 430.498 919.041 430.408 918.971 430.319 918.882 430.229 918.782 430.119 918.274 429.581 917.497 428.764 917.915 427.887 918.075 427.538 918.374 427.279 918.732 427.16 918.942 427.1 919.151 427.07 919.38 427.07M919.38 426.074C919.031 426.074 918.712 426.123 918.423 426.213 917.806 426.412 917.287 426.871 917.008 427.479 916.301 428.943 917.477 430.199 918.045 430.807L918.114 430.887C918.174 430.946 918.224 431.006 918.264 431.056 918.344 431.146 918.413 431.225 918.483 431.305L918.493 431.315 918.523 431.355C918.722 431.564 918.892 431.783 919.051 432.023 919.081 432.082 919.101 432.152 919.121 432.212 919.171 432.391 919.231 432.581 919.31 432.76L919.5 433.228C919.709 433.786 919.978 434.354 920.277 434.902 920.506 435.291 920.755 435.66 921.044 435.999L921.064 436.019 921.074 436.029C921.064 436.039 921.064 436.058 921.054 436.068L921.044 436.098 921.034 436.128C920.915 436.497 920.805 436.876 920.725 437.254 920.426 438.649 920.297 440.602 921.273 442.267 920.974 442.227 920.666 442.207 920.357 442.207 919.649 442.207 918.932 442.306 918.254 442.516 917.666 442.655 915.215 443.433 913.909 446.532 913.242 446.711 912.594 446.97 911.976 447.309 910.501 448.136 908.628 449.79 908.06 453.019L908.05 453.109 908.05 453.178C908 453.716 907.811 456.487 909.614 458.689 910.84 460.184 912.644 461.041 914.966 461.21L915.005 461.21 915.045 461.21 926.286 461.21 926.286 464.917 926.286 465.276 926.515 465.555 926.674 465.744C927.103 466.262 928.996 467.946 935.473 467.946 941.154 467.946 943.645 466.222 943.904 466.023L944.183 465.814 944.581 465.515 944.581 465.017 944.581 450.886C944.691 450.597 944.86 450.119 944.92 449.87 944.95 449.74 945.05 449.292 945.03 448.963 945.03 448.923 945 448.545 944.831 448.246 944.791 448.176 944.701 448.026 944.392 447.757 944.382 447.747 944.193 447.588 944.083 447.508L943.874 447.369C943.346 446.781 942.738 446.273 942.07 445.844 942.19 445.824 942.309 445.804 942.429 445.784L942.618 445.754C942.997 445.695 943.774 445.575 944.023 444.818 944.103 444.598 944.223 444.01 943.635 443.433 942.708 442.466 941.602 441.649 940.376 441.031 939.858 440.752 939.28 440.483 938.632 440.214 938.463 440.144 938.264 440.084 938.054 440.025L938.015 440.015 937.975 440.005C937.785 439.965 937.596 439.885 937.437 439.775 937.307 439.616 937.197 439.447 937.108 439.257 937.028 439.098 936.958 438.978 936.888 438.849 936.46 438.151 935.992 437.304 935.464 436.258 935.344 436.039 935.254 435.839 935.165 435.65 934.985 435.231 934.756 434.803 934.487 434.414 932.743 431.973 930.431 429.98 927.771 428.644 926.415 427.987 924.921 427.618 923.426 427.568 923.396 427.548 923.356 427.518 923.326 427.499 923.177 427.379 923.027 427.269 922.868 427.18 922.11 426.751 920.666 426.074 919.38 426.074L919.38 426.074ZM924.99 443.841C925.269 443.692 925.479 443.492 925.628 443.273 925.927 443.632 926.266 443.971 926.644 444.27 926.605 444.27 926.555 444.27 926.515 444.27 926.196 444.27 925.877 444.29 925.548 444.329 925.359 444.15 925.18 443.991 924.99 443.841L924.99 443.841Z" fill="#FFFFFF"/><path d="M915.245 448.814 915.773 448.774 915.922 448.266C916.739 445.435 918.742 444.967 918.822 444.947L918.892 444.927C922.27 443.931 924.173 446.552 924.253 446.661L924.552 447.09 925.06 446.96C927.003 446.462 928.259 447 929.056 447.717 929.225 447.658 929.405 447.588 929.604 447.528 929.933 447.428 930.282 447.339 930.65 447.259 929.694 446.073 927.99 444.828 925.18 445.386 923.525 443.492 920.915 442.745 918.503 443.472 918.134 443.562 915.733 444.22 914.637 447.369 913.869 447.518 913.132 447.787 912.444 448.166 911.159 448.883 909.525 450.328 909.026 453.178L909.026 453.218C909.006 453.328 908.698 456.008 910.362 458.041 911.408 459.317 912.973 460.044 915.015 460.194L926.186 460.194 926.186 458.689 915.095 458.689C913.501 458.569 912.305 458.031 911.538 457.095 910.332 455.63 910.501 453.597 910.521 453.407 911.268 449.172 915.085 448.824 915.245 448.814Z" fill="#2C5967"/><path d="M924.123 431.116C924.024 431.036 923.914 430.976 923.785 430.946 923.545 430.907 923.296 430.917 923.067 430.986L923.067 431.016 923.107 431.016C923.286 431.186 923.446 431.365 923.585 431.564 923.765 431.803 923.924 432.053 924.074 432.312 924.382 432.172 924.542 431.833 924.452 431.514 924.372 431.365 924.263 431.225 924.123 431.116Z" fill="#2C5967"/><path d="M944.003 449.023C943.944 448.953 943.904 448.873 943.864 448.794 943.824 448.694 943.774 448.604 943.715 448.525 943.625 448.445 943.535 448.375 943.445 448.305L943.186 448.096C942.648 447.488 942.02 446.97 941.323 446.552 941.173 446.462 940.974 446.362 940.775 446.263 940.227 445.994 939.539 445.655 939.34 445.286 939.679 445.236 940.027 445.166 940.356 445.077L940.456 445.057C940.745 444.997 941.034 444.957 941.333 444.937 941.632 444.917 941.931 444.877 942.23 444.818L942.439 444.778C942.708 444.738 943.017 444.688 943.077 444.509 943.117 444.409 943.077 444.29 942.937 444.15 942.07 443.243 941.044 442.496 939.928 441.928 939.42 441.659 938.872 441.4 938.254 441.141 938.124 441.091 937.955 441.031 937.775 440.981 937.407 440.901 937.058 440.752 936.759 440.523 936.54 440.274 936.36 439.995 936.211 439.706 936.151 439.586 936.091 439.476 936.022 439.367 935.563 438.619 935.075 437.723 934.567 436.716 934.447 436.507 934.347 436.288 934.258 436.068 934.098 435.69 933.899 435.321 933.66 434.972 932.026 432.67 929.843 430.807 927.322 429.531 926.027 428.904 924.602 428.565 923.167 428.565 922.997 428.485 922.838 428.385 922.698 428.266 922.599 428.186 922.489 428.106 922.37 428.037 921.662 427.648 919.878 426.801 918.732 427.17 918.364 427.289 918.075 427.548 917.915 427.897 917.497 428.774 918.264 429.591 918.782 430.139 918.882 430.249 918.971 430.349 919.041 430.428 919.111 430.518 919.171 430.578 919.24 430.657 919.5 430.926 919.739 431.235 919.928 431.554 919.988 431.684 920.038 431.813 920.068 431.953 920.107 432.092 920.157 432.232 920.207 432.361L920.406 432.85C920.606 433.388 920.855 433.916 921.134 434.414 921.323 434.753 921.552 435.072 921.792 435.371 921.841 435.431 921.901 435.48 921.971 435.53 922.091 435.6 922.18 435.72 922.22 435.859 922.18 435.999 922.13 436.128 922.051 436.258 922.011 436.327 921.981 436.397 921.951 436.467 921.841 436.796 921.752 437.135 921.682 437.483 921.393 438.819 921.283 440.712 922.36 442.157 922.987 443.004 923.635 443.313 924.303 443.074 924.911 442.865 924.99 442.336 925.07 441.778 925.09 441.559 925.13 441.35 925.18 441.131 925.2 441.071 925.21 441.011 925.219 440.941 925.219 440.911 925.229 440.872 925.239 440.842L925.369 441.071C925.558 441.39 925.738 441.689 925.917 442.008 926.326 442.645 926.844 443.203 927.452 443.652L927.492 443.682C928.089 444.16 928.827 444.778 929.564 444.997L929.644 445.007 929.644 444.808 929.574 444.808C929.495 444.728 929.415 444.658 929.315 444.608 929.265 444.578 929.215 444.549 929.176 444.519 928.847 444.24 928.538 443.941 928.259 443.612 927.511 442.755 926.854 441.828 926.266 440.842 925.997 440.413 925.778 439.955 925.558 439.506L925.499 439.387C925.469 439.317 925.439 439.247 925.419 439.177 925.399 439.028 925.309 438.898 925.19 438.809L925.14 438.789 925.1 438.829C925.01 438.948 924.911 439.058 924.801 439.158 924.582 439.367 924.402 439.606 924.253 439.865 924.004 440.433 923.864 441.041 923.824 441.659 923.804 441.818 923.785 441.978 923.755 442.137L923.745 442.137C923.286 442.027 923.097 441.629 922.908 441.25L922.848 441.131C922.3 440.034 922.25 438.32 922.688 437.125 922.708 437.065 922.748 436.975 922.798 436.876 923.067 436.288 923.306 435.7 923.127 435.441 923.027 435.251 922.888 435.102 922.718 434.982 922.629 434.912 922.539 434.833 922.459 434.753 922.22 434.454 922.011 434.135 921.831 433.786 921.642 433.388 921.473 432.979 921.323 432.551 921.154 432.062 920.954 431.584 920.725 431.136 920.516 430.787 920.277 430.458 920.008 430.159L919.838 429.96C919.759 429.86 919.649 429.751 919.529 429.631 919.141 429.242 918.653 428.754 918.772 428.306 918.802 428.176 918.892 428.076 919.021 428.037 919.589 427.807 920.935 428.465 921.572 428.854 921.652 428.904 921.722 428.943 921.802 428.993 922.001 429.123 922.2 429.232 922.409 429.342 922.738 429.472 923.097 429.531 923.446 429.511 923.605 429.511 923.765 429.511 923.924 429.541 924.442 429.601 924.95 429.701 925.449 429.85 926.495 430.179 927.492 430.657 928.398 431.265 930.202 432.451 931.717 434.026 932.833 435.869 932.942 436.048 933.032 436.238 933.102 436.437 933.162 436.587 933.231 436.736 933.321 436.896 933.52 437.294 933.74 437.693 933.959 438.091 934.148 438.44 934.347 438.799 934.527 439.138L934.626 439.327C934.935 439.995 935.334 440.622 935.802 441.19 936.002 441.43 936.59 441.579 937.098 441.709 937.307 441.758 937.496 441.808 937.646 441.858 938.423 442.127 939.18 442.466 939.898 442.855 940.267 443.054 940.635 443.273 940.994 443.502 941.044 443.532 941.114 443.572 941.193 443.622 941.423 443.721 941.632 443.871 941.791 444.06 940.376 444.04 939.3 444.18 938.423 444.489 938.353 444.509 938.284 444.529 938.204 444.539 937.955 444.588 937.676 444.658 937.656 444.917L937.656 444.957 937.686 444.977C937.755 445.047 937.805 445.127 937.835 445.216 937.865 445.296 937.905 445.376 937.965 445.455 938.224 445.824 938.543 446.143 938.901 446.402 939.25 446.631 939.639 446.89 940.047 447.11 940.396 447.289 940.755 447.448 941.114 447.578 941.482 447.717 941.841 447.877 942.19 448.046 942.409 448.166 942.638 448.315 942.858 448.455 943.027 448.564 943.186 448.664 943.356 448.764 943.426 448.814 943.485 448.863 943.545 448.913 943.655 449.023 943.794 449.113 943.944 449.162L944.033 449.192 944.033 449.033 944.003 449.023Z" fill="#2C5967"/><path d="M940.894 448.654C939.111 448.166 937.267 447.927 935.424 447.957 933.58 447.927 931.737 448.166 929.953 448.654 927.761 449.332 927.292 450.259 927.292 450.926L927.252 450.926 927.252 464.897 927.412 465.086C927.571 465.276 929.126 466.93 935.444 466.93 940.884 466.93 943.186 465.276 943.286 465.196L943.555 464.987 943.555 450.707 943.535 450.707C943.455 450.099 942.897 449.262 940.894 448.654ZM935.424 449.322C940.077 449.322 942.19 450.538 942.19 450.916 942.19 451.285 940.077 452.501 935.424 452.501 930.77 452.501 928.657 451.285 928.657 450.916 928.657 450.548 930.77 449.322 935.424 449.322ZM942.19 464.269C941.423 464.678 939.32 465.565 935.444 465.565 930.87 465.565 929.106 464.658 928.628 464.329L928.628 461.579C929.724 462.067 931.786 462.625 935.444 462.625 938.772 462.625 940.934 462.017 942.19 461.479L942.19 464.269ZM942.19 459.964C941.423 460.373 939.32 461.26 935.444 461.26 930.87 461.26 929.106 460.353 928.628 460.024L928.628 456.985C929.724 457.473 931.786 458.011 935.444 458.011 938.772 458.011 940.934 457.413 942.19 456.885L942.19 459.964ZM942.19 455.391C941.692 455.66 939.559 456.656 935.444 456.656 930.88 456.656 929.106 455.769 928.628 455.45L928.628 452.64C929.056 452.869 929.495 453.049 929.963 453.188 931.747 453.677 933.59 453.916 935.434 453.886 937.277 453.916 939.121 453.677 940.904 453.188 941.353 453.059 941.791 452.889 942.2 452.67L942.19 455.391Z" fill="#2C5967"/></g></svg>