<svg width="42" height="42" xmlns="http://www.w3.org/2000/svg" xmlns:xlink="http://www.w3.org/1999/xlink" xml:space="preserve" overflow="hidden"><defs><rect x="906" y="79" width="42" height="42"/></defs><g transform="translate(-906 -79)"><path d="M936.202 115.53C935.125 114.446 934.126 113.287 933.213 112.062L930.433 108.365C923.142 112.98 913.49 110.811 908.874 103.521 904.953 97.3251 905.867 89.236 911.072 84.0719 917.182 77.9714 927.081 77.9797 933.182 84.0903 938.322 89.2391 939.231 97.2533 935.375 103.423L939.072 106.193C940.292 107.108 941.448 108.107 942.53 109.182L947.432 114.085 946.734 116.177 943.187 119.715 941.095 120.412Z" fill="#FFFFFF"/><path d="M922.122 79.9964C930.476 79.9913 937.253 86.7593 937.258 95.1132 937.259 98.1146 936.368 101.049 934.698 103.542L938.773 106.591C939.978 107.506 941.117 108.505 942.181 109.581L945.449 112.849 946.854 114.224 946.286 115.918 942.908 119.286 942.908 119.286 941.234 119.854 939.819 118.439 936.561 115.171C935.48 114.112 934.481 112.972 933.572 111.763L930.512 107.688C923.561 112.321 914.17 110.443 909.537 103.492 907.884 101.013 907 98.1015 906.996 95.1224 906.996 86.7686 913.769 79.9964 922.122 79.9964M922.122 79C913.218 79.0011 906.001 86.2202 906.002 95.1244 906.003 99.3991 907.701 103.499 910.723 106.522 915.92 111.714 923.968 112.742 930.303 109.023L932.804 112.361C933.75 113.602 934.782 114.774 935.893 115.868L939.162 119.137 940.567 120.552 941.005 120.99 941.583 120.791 943.277 120.223 943.496 120.153 943.665 119.984 947.043 116.606 947.203 116.446 947.283 116.217 947.851 114.543 948.04 113.955 947.601 113.517 946.186 112.112 942.868 108.893C941.769 107.795 940.594 106.776 939.351 105.844L936.013 103.343C940.553 95.6833 938.024 85.7934 930.364 81.2533 927.87 79.7746 925.022 78.9962 922.122 79Z" fill="#FFFFFF"/><path d="M930.831 86.2641C926.013 81.446 918.202 81.446 913.384 86.2641 908.566 91.0822 908.566 98.8937 913.384 103.712 918.193 108.53 925.997 108.537 930.815 103.728 930.821 103.723 930.826 103.717 930.831 103.712 935.645 98.8918 935.645 91.084 930.831 86.2641ZM929.705 102.586C925.507 106.785 918.699 106.785 914.5 102.586 914.5 102.586 914.5 102.586 914.5 102.586 910.301 98.3869 910.301 91.5793 914.5 87.3807 918.699 83.1821 925.507 83.1824 929.705 87.3813 933.904 91.5801 933.904 98.3871 929.705 102.586Z" fill="#2C5967"/><path d="M942.161 109.411C941.095 108.338 939.956 107.339 938.753 106.422L934.678 103.363C938.666 97.3685 937.882 89.3951 932.804 84.2911 926.899 78.3819 917.322 78.3784 911.413 84.2834 905.504 90.1883 905.5 99.7655 911.405 105.675 914.242 108.513 918.09 110.108 922.102 110.109 925.102 110.123 928.035 109.234 930.522 107.558L933.581 111.633C934.499 112.837 935.497 113.975 936.571 115.041L939.839 118.31 945.469 112.68ZM922.102 108.525C914.624 108.535 908.552 102.481 908.542 95.002 908.531 87.5232 914.586 81.4518 922.064 81.4413 929.543 81.4308 935.615 87.485 935.625 94.9639 935.63 98.5524 934.211 101.996 931.678 104.539 929.149 107.097 925.7 108.533 922.102 108.525ZM937.657 113.875C936.665 112.873 935.743 111.805 934.897 110.677L931.798 106.601C932.147 106.312 932.475 106.004 932.794 105.685 933.113 105.366 933.422 105.027 933.711 104.688L937.786 107.737C938.93 108.598 940.012 109.537 941.025 110.547L943.167 112.69 939.789 116.068Z" fill="#2C5967"/><path d="M945.15 114.653 941.772 118.031 941.772 118.031 940.646 119.157 941.214 119.715 942.898 119.157 942.898 119.157 946.276 115.779 945.15 114.653Z" fill="#2C5967"/><path d="M946.276 113.527 945.15 114.653 946.276 115.779 946.834 114.095 946.276 113.527Z" fill="#2C5967"/><path d="M922.102 90.9573C919.852 90.9578 918.027 92.7829 918.028 95.0337 918.029 97.2845 919.854 99.1087 922.104 99.1082 924.355 99.1077 926.179 97.2826 926.179 95.0317 926.179 95.0022 926.179 94.9727 926.178 94.9431 926.135 92.7251 924.321 90.9514 922.102 90.9573ZM922.102 97.5039C920.732 97.5032 919.622 96.3918 919.623 95.0215 919.623 93.6512 920.735 92.5409 922.105 92.5416 923.444 92.5423 924.541 93.6049 924.584 94.9431 924.611 96.3076 923.527 97.4361 922.163 97.4636 922.143 97.464 922.123 97.4642 922.102 97.4641Z" fill="#2C5967"/><path d="M928.34 92.452 928.34 92.3722 929.606 90.7879 926.307 87.5196 924.723 88.785 924.643 88.785 924.414 86.7922 919.801 86.7922 919.572 88.785 919.492 88.785 917.957 87.5196 914.639 90.7879 915.905 92.3722 915.905 92.452 913.912 92.6811 913.912 97.2947 915.905 97.5238 915.905 97.6036 914.639 99.1879 917.957 102.456 919.542 101.191 919.621 101.191 919.851 103.184 924.464 103.184 924.693 101.191 924.773 101.191 926.357 102.456 929.626 99.1879 928.36 97.6036 928.36 97.5238 930.353 97.2947 930.353 92.6811ZM928.769 95.8698 927.164 96.0491 927.005 96.5473C926.916 96.8212 926.806 97.0876 926.676 97.3445L926.437 97.8128 927.433 99.0683 926.188 100.324 924.932 99.3274 924.464 99.5665C924.208 99.6983 923.941 99.8083 923.667 99.8954L923.169 100.055 922.989 101.659 921.216 101.659 921.036 100.055 920.548 99.9253C920.271 99.8364 920.001 99.7265 919.741 99.5964L919.283 99.3573 918.027 100.354 916.772 99.0982 917.768 97.8427 917.529 97.3744C917.395 97.1195 917.285 96.8525 917.2 96.5772L917.041 96.079 915.436 95.8996 915.436 94.0961 917.051 93.9466 917.21 93.4584C917.295 93.1798 917.405 92.9096 917.539 92.6512L917.778 92.1929 916.781 90.9374 918.037 89.6819 919.293 90.6783 919.751 90.4391C920.009 90.3049 920.279 90.1949 920.558 90.1103L921.046 89.9509 921.226 88.3466 922.999 88.3466 923.169 89.9609 923.667 90.1203C923.941 90.2074 924.208 90.3174 924.464 90.4491L924.932 90.6883 926.188 89.6918 927.443 90.9573 926.447 92.2128 926.686 92.6712C926.816 92.9314 926.926 93.2013 927.015 93.4783L927.174 93.9666 928.779 94.1459Z" fill="#2C5967"/></g></svg>