<svg width="35" height="35" viewBox="0 0 87 51" xmlns="http://www.w3.org/2000/svg" xmlns:xlink="http://www.w3.org/1999/xlink" xml:space="preserve" overflow="hidden"><g transform="translate(-2763 -1301)"><g><path d="M2766 1350.89 2766.22 1347.66C2766.49 1343.99 2767.59 1340.46 2769.45 1337.4 2771.29 1334.35 2773.81 1331.86 2776.78 1330.19 2777.42 1329.81 2777.96 1329.27 2778.36 1328.62 2778.77 1327.97 2779.04 1327.22 2779.15 1326.43 2779.81 1322.66 2781.66 1319.26 2784.34 1316.82 2787.03 1314.37 2790.4 1313.04 2793.87 1313.05 2794.33 1313.02 2794.8 1313.02 2795.26 1313.05L2795.73 1313.05C2796.35 1313.06 2796.98 1312.92 2797.55 1312.65 2798.11 1312.38 2798.63 1311.98 2799.06 1311.48 2801.08 1309.07 2803.6 1307.24 2806.41 1306.15 2809.22 1305.06 2812.22 1304.74 2815.17 1305.21 2818.1 1305.69 2820.9 1306.95 2823.31 1308.89 2825.72 1310.82 2827.66 1313.37 2828.98 1316.32 2829.28 1317.06 2829.76 1317.72 2830.32 1318.23 2830.91 1318.74 2831.58 1319.1 2832.3 1319.27 2835.13 1319.98 2837.78 1321.4 2840.04 1323.42 2842.29 1325.45 2844.09 1328.02 2845.3 1330.94 2846.5 1333.86 2847.09 1337.05 2846.99 1340.26 2846.91 1343.47 2846.14 1346.62 2844.77 1349.45L2844.02 1351 2766 1350.89Z" fill="#FFFFFF" fill-rule="evenodd" fill-opacity="1"/><path d="M2812.53 1306.18C2815.77 1306.17 2818.94 1307.16 2821.69 1309.04 2824.44 1310.92 2826.66 1313.62 2828.08 1316.83 2828.47 1317.69 2829.02 1318.44 2829.71 1319.03 2830.39 1319.61 2831.18 1320.03 2832.02 1320.23 2834.03 1320.73 2835.94 1321.6 2837.67 1322.81 2841.49 1325.46 2844.25 1329.62 2845.41 1334.44 2846.56 1339.27 2846.01 1344.4 2843.86 1348.79L2843.38 1349.77 2767.13 1349.77 2767.27 1347.77C2767.49 1344.28 2768.5 1340.91 2770.23 1337.98 2771.96 1335.05 2774.32 1332.66 2777.12 1331.03 2777.89 1330.6 2778.56 1329.98 2779.07 1329.23 2779.59 1328.47 2779.95 1327.6 2780.12 1326.67 2780.55 1324.22 2781.52 1321.92 2782.91 1319.97 2784.33 1318.03 2786.14 1316.48 2788.2 1315.48 2789.98 1314.62 2791.91 1314.17 2793.84 1314.17L2795.14 1314.17 2795.7 1314.17C2796.43 1314.16 2797.16 1313.98 2797.84 1313.65 2798.52 1313.32 2799.13 1312.84 2799.64 1312.25 2801.29 1310.3 2803.29 1308.76 2805.5 1307.72 2807.73 1306.68 2810.12 1306.15 2812.53 1306.18ZM2812.53 1304C2809.88 1304 2807.23 1304.61 2804.8 1305.79 2802.36 1306.97 2800.17 1308.69 2798.35 1310.85 2798.02 1311.24 2797.62 1311.55 2797.18 1311.76 2796.72 1311.97 2796.24 1312.08 2795.75 1312.07L2795.38 1312.07C2794.89 1312.04 2794.4 1312.04 2793.9 1312.07 2790.2 1312.08 2786.62 1313.51 2783.76 1316.11 2780.91 1318.71 2778.94 1322.32 2778.23 1326.34 2778.11 1326.95 2777.88 1327.53 2777.53 1328.03 2777.2 1328.53 2776.76 1328.94 2776.26 1329.22 2773.16 1331.01 2770.53 1333.64 2768.62 1336.86 2766.7 1340.08 2765.55 1343.79 2765.29 1347.64L2765.15 1349.64 2765 1352 2844.57 1352 2845.12 1350.87 2845.59 1349.88C2847.06 1346.91 2847.88 1343.6 2847.99 1340.21 2848.1 1336.82 2847.49 1333.45 2846.22 1330.37 2844.94 1327.29 2843.05 1324.57 2840.66 1322.45 2838.28 1320.32 2835.48 1318.84 2832.48 1318.12 2831.93 1317.98 2831.4 1317.72 2830.94 1317.35 2830.49 1316.97 2830.11 1316.49 2829.84 1315.93 2828.26 1312.35 2825.78 1309.33 2822.73 1307.22 2819.67 1305.11 2816.14 1304 2812.53 1304Z" fill="#FFFFFF" fill-rule="evenodd" fill-opacity="1"/><path d="M2843.89 1348.97 2843.41 1349.96 2808.32 1349.96C2806.84 1349.95 2805.38 1349.62 2804.01 1348.97 2802.64 1348.33 2801.41 1347.38 2800.37 1346.2 2799.32 1345.02 2798.49 1343.61 2797.93 1342.06 2797.37 1340.52 2797.09 1338.87 2797.09 1337.2L2800.44 1337.2C2800.42 1339.55 2801.24 1341.82 2802.69 1343.5 2804.16 1345.18 2806.16 1346.14 2808.24 1346.17L2841.39 1346.17C2842.81 1342.65 2843.05 1338.66 2842.07 1334.95 2841.1 1331.23 2838.98 1328.04 2836.09 1325.95 2834.71 1324.93 2833.19 1324.18 2831.58 1323.75 2830.25 1323.42 2829 1322.76 2827.92 1321.82 2826.84 1320.87 2825.97 1319.67 2825.36 1318.3 2824.23 1315.69 2822.46 1313.5 2820.27 1311.98 2818.1 1310.45 2815.57 1309.65 2813 1309.67 2811.07 1309.68 2809.17 1310.14 2807.4 1311.02 2805.64 1311.9 2804.06 1313.19 2802.76 1314.8 2801.83 1315.92 2800.7 1316.78 2799.43 1317.32 2798.15 1317.85 2796.78 1318.04 2795.43 1317.88 2793.67 1317.7 2791.87 1318.04 2790.25 1318.85 2788.7 1319.61 2787.34 1320.79 2786.29 1322.28 2785.22 1323.76 2784.51 1325.51 2784.18 1327.38 2783.92 1328.88 2783.38 1330.28 2782.57 1331.5 2781.78 1332.72 2780.74 1333.72 2779.55 1334.42 2777.55 1335.6 2775.81 1337.26 2774.46 1339.3 2773.1 1341.33 2772.17 1343.68 2771.75 1346.17L2797.09 1346.17C2797.99 1347.66 2799.11 1348.96 2800.42 1350L2768 1350 2768.14 1347.98C2768.36 1344.46 2769.35 1341.06 2771.06 1338.11 2772.77 1335.16 2775.11 1332.74 2777.89 1331.1 2778.64 1330.66 2779.3 1330.04 2779.81 1329.28 2780.33 1328.52 2780.68 1327.64 2780.85 1326.7 2781.27 1324.23 2782.23 1321.92 2783.62 1319.95 2785.01 1317.99 2786.8 1316.43 2788.84 1315.42 2791 1314.36 2793.36 1313.92 2795.7 1314.16 2796.54 1314.27 2797.39 1314.15 2798.18 1313.82 2798.96 1313.49 2799.67 1312.96 2800.25 1312.27 2801.86 1310.3 2803.82 1308.72 2805.99 1307.64 2808.17 1306.56 2810.52 1306 2812.9 1306 2816.1 1305.98 2819.24 1306.98 2821.96 1308.88 2824.68 1310.78 2826.87 1313.5 2828.28 1316.74 2828.66 1317.6 2829.21 1318.36 2829.89 1318.95 2830.56 1319.54 2831.34 1319.96 2832.19 1320.17 2834.16 1320.67 2836.05 1321.55 2837.76 1322.76 2841.54 1325.44 2844.29 1329.63 2845.42 1334.5 2846.56 1339.36 2846.01 1344.54 2843.89 1348.97Z" fill="#2D5967" fill-rule="evenodd" fill-opacity="1"/></g></g></svg>