<svg width="40" height="42" xmlns="http://www.w3.org/2000/svg" xmlns:xlink="http://www.w3.org/1999/xlink" xml:space="preserve" overflow="hidden"><g transform="translate(-1040 -252)"><path d="M1050.27 261.23 1053.76 258.06 1053.76 254.69 1043.57 254.69 1043.57 261.49 1046.94 258.18 1050.27 261.23Z" fill="#FFFFFF"/><path d="M1046.32 290.72 1046.32 287.42 1043.01 287.42C1043.33 289.094 1044.64 290.402 1046.32 290.72Z" fill="#FFFFFF"/><path d="M1051.25 265 1043.57 265 1043.57 263.53 1043.62 263.59 1046.98 260.3 1050.27 263.3 1053.75 260.14 1053.75 263.23C1054.23 262.973 1054.73 262.752 1055.25 262.57L1055.25 253.16 1042.03 253.16 1042.03 266.52 1049.85 266.52C1050.16 266.098 1050.49 265.697 1050.85 265.32ZM1043.57 254.69 1053.75 254.69 1053.75 258.06 1050.25 261.23 1046.94 258.18 1043.57 261.49Z" fill="#2C5967"/><path d="M1053.92 284C1053.89 285.964 1052.48 287.635 1050.55 288L1050.55 284.28 1052.11 282.71C1051.7 282.407 1051.31 282.073 1050.95 281.71L1049.46 283.19 1045.71 283.19C1046.06 281.37 1047.56 279.999 1049.41 279.83 1049.1 279.375 1048.83 278.897 1048.6 278.4 1045.96 278.964 1044.08 281.303 1044.1 284L1044.1 284.77 1049.01 284.77 1049.01 289.68 1049.78 289.68C1052.73 289.681 1055.19 287.427 1055.44 284.49 1054.92 284.319 1054.41 284.112 1053.92 283.87Z" fill="#2C5967"/><path d="M1041.4 286.65C1041.41 289.789 1043.95 292.33 1047.09 292.33L1047.85 292.33 1047.85 285.88 1041.4 285.88ZM1046.32 287.42 1046.32 290.72C1044.64 290.402 1043.33 289.094 1043.01 287.42Z" fill="#2C5967"/><path d="M1064.25 254.67 1074.46 254.67 1074.46 265 1073.08 265 1073.08 257 1071.45 257 1071.45 265 1070.16 265 1070.16 259 1068.48 259 1068.48 265 1067.25 265 1067.25 261.12 1065.62 261.12 1065.62 264C1066.2 264.394 1066.74 264.836 1067.25 265.32 1067.61 265.704 1067.94 266.112 1068.25 266.54L1075.96 266.54 1075.96 253.15 1062.69 253.15 1062.69 262.53C1063.22 262.698 1063.73 262.909 1064.22 263.16Z" fill="#2C5967"/><path d="M1065.32 279.75C1068.78 276.29 1068.78 270.68 1065.32 267.22 1061.86 263.76 1056.25 263.76 1052.79 267.22 1049.33 270.683 1049.34 276.293 1052.8 279.75 1054.46 281.409 1056.71 282.34 1059.06 282.34 1061.41 282.348 1063.66 281.415 1065.32 279.75Z" fill="#FFFFFF"/><path d="M1070.82 282.22 1067.42 279.67C1066.85 280.426 1066.18 281.099 1065.42 281.67L1068.11 285.26C1068.71 286.098 1069.38 286.881 1070.11 287.6L1071.61 289.1 1074.87 285.84 1073.95 284.91C1072.97 283.945 1071.92 283.046 1070.82 282.22Z" fill="#FFFFFF"/><path d="M1079.25 286.42 1078.7 285.88 1077.89 285.06 1077.89 285.06 1077.89 285.06 1075.89 283.06C1074.82 281.978 1073.68 280.975 1072.47 280.06L1069.69 278C1070.29 276.569 1070.6 275.032 1070.6 273.48 1070.6 271.45 1070.07 269.456 1069.05 267.7L1077.14 267.7 1077.14 252 1061.54 252 1061.54 262.21C1060.72 262.035 1059.89 261.944 1059.06 261.94 1058.18 261.943 1057.31 262.044 1056.45 262.24L1056.45 252 1040.87 252 1040.87 267.67 1049.08 267.67C1048.05 269.436 1047.51 271.445 1047.51 273.49 1047.51 274.794 1047.73 276.088 1048.16 277.32 1045.09 278.073 1042.93 280.835 1042.94 284L1042.94 284.77 1040.25 284.77 1040.25 286.69C1040.26 290.464 1043.32 293.52 1047.09 293.52L1049.01 293.52 1049.01 290.79 1049.78 290.79C1053.23 290.786 1056.14 288.215 1056.57 284.79 1059.01 285.311 1061.54 285.034 1063.81 284L1065.98 286.88C1066.65 287.828 1067.41 288.712 1068.25 289.52L1070.83 292.11 1070.83 292.11 1070.83 292.11 1071.65 292.92 1072.19 293.47 1072.7 293.97 1073.38 293.74 1075.01 293.2 1075.27 293.11 1075.46 292.92 1078.72 289.66 1078.91 289.47 1079 289.21 1079.55 287.57 1079.77 286.9ZM1062.69 253.15 1075.99 253.15 1075.99 266.54 1068.25 266.54C1067.94 266.112 1067.61 265.704 1067.25 265.32 1066.74 264.836 1066.2 264.394 1065.62 264L1065.62 261.12 1067.25 261.12 1067.25 265 1068.5 265 1068.5 259 1070.18 259 1070.18 265 1071.45 265 1071.45 257 1073.08 257 1073.08 265 1074.46 265 1074.46 254.67 1064.25 254.67 1064.25 263.16C1063.76 262.909 1063.25 262.698 1062.72 262.53ZM1042.03 266.52 1042.03 253.16 1055.25 253.16 1055.25 262.57C1054.72 262.75 1054.21 262.971 1053.71 263.23L1053.71 260.14 1050.25 263.31 1046.96 260.31 1043.62 263.59 1043.57 263.53 1043.57 265 1051.25 265 1050.89 265.34C1050.53 265.717 1050.2 266.118 1049.89 266.54ZM1047.85 292.33 1047.09 292.33C1043.95 292.33 1041.41 289.789 1041.4 286.65L1041.4 285.88 1047.85 285.88ZM1049.78 289.64 1049.01 289.64 1049.01 284.73 1044.1 284.73 1044.1 284C1044.1 281.318 1045.98 279.001 1048.6 278.44 1048.83 278.937 1049.1 279.415 1049.41 279.87 1047.56 280.039 1046.06 281.41 1045.71 283.23L1049.46 283.23 1050.95 281.75C1051.31 282.112 1051.7 282.447 1052.11 282.75L1050.55 284.28 1050.55 288C1052.48 287.635 1053.89 285.964 1053.92 284L1053.92 283.87C1054.41 284.112 1054.92 284.319 1055.44 284.49 1055.17 287.411 1052.71 289.643 1049.78 289.64ZM1071.61 291.29 1069.02 288.71C1068.24 287.936 1067.53 287.096 1066.9 286.2L1064.16 282.55C1062.6 283.423 1060.85 283.881 1059.06 283.88L1058.56 283.88 1058.36 283.88 1058.08 283.88 1057.82 283.88 1057.6 283.88 1057.3 283.83 1057.14 283.83 1056.81 283.76 1056.69 283.76C1056.08 283.565 1055.5 283.31 1054.94 283L1054.94 283C1054.78 282.94 1054.63 282.86 1054.48 282.79L1054.48 282.79C1053.86 282.487 1053.27 282.118 1052.72 281.69L1052.58 281.59 1052.37 281.42 1052.25 281.34C1052.08 281.19 1051.92 281.05 1051.76 280.89L1051.76 280.89 1051.76 280.84C1051.13 280.207 1050.58 279.495 1050.13 278.72L1050.13 278.72C1049.84 278.218 1049.59 277.693 1049.39 277.15L1049.39 277.15 1049.39 277.09 1049.25 276.85 1049.19 276.64 1049.07 276.26 1048.98 276C1048.97 275.922 1048.95 275.846 1048.93 275.77 1048.93 275.7 1048.93 275.63 1048.93 275.56 1048.93 275.49 1048.93 275.41 1048.93 275.33 1048.93 275.25 1048.93 275.19 1048.93 275.11L1048.93 274.89C1048.93 274.76 1048.93 274.63 1048.93 274.49 1048.93 274.35 1048.93 274.35 1048.93 274.28 1048.93 274.21 1048.93 274.12 1048.93 274.05 1048.93 273.973 1048.93 273.897 1048.93 273.82 1048.92 273.743 1048.92 273.667 1048.93 273.59L1048.93 273.38C1048.93 273.283 1048.93 273.187 1048.93 273.09 1048.93 273 1048.93 272.91 1048.93 272.82 1048.93 272.72 1048.93 272.62 1048.93 272.52 1048.93 272.42 1048.93 272.38 1048.93 272.32L1048.93 272.07 1048.93 271.87C1048.93 271.78 1048.93 271.69 1048.93 271.6 1048.93 271.54 1048.93 271.48 1048.93 271.42 1048.95 271.281 1048.98 271.144 1049.02 271.01 1049.01 270.957 1049.01 270.903 1049.02 270.85 1049.02 270.75 1049.07 270.66 1049.09 270.57L1049.15 270.39C1049.18 270.312 1049.21 270.235 1049.25 270.16L1049.25 270C1049.25 269.89 1049.33 269.77 1049.38 269.66 1049.38 269.62 1049.38 269.58 1049.38 269.54 1049.43 269.41 1049.48 269.29 1049.54 269.17 1049.6 269.05 1049.59 269.07 1049.61 269.01L1049.74 268.75C1049.77 268.699 1049.8 268.645 1049.82 268.59 1049.82 268.5 1049.93 268.41 1049.98 268.31 1050.03 268.21 1049.98 268.23 1050.05 268.18L1050.29 267.8C1050.31 267.762 1050.34 267.725 1050.37 267.69L1050.37 267.69C1050.75 267.142 1051.17 266.63 1051.64 266.16 1051.75 266.04 1051.86 265.94 1051.98 265.83L1052.25 265.6 1052.35 265.51 1052.67 265.26 1052.67 265.26C1052.99 265.009 1053.32 264.776 1053.67 264.56L1053.67 264.56C1053.9 264.42 1054.14 264.3 1054.39 264.18L1054.39 264.18 1054.76 264.01 1054.76 264.01 1055.25 263.8 1055.25 263.8C1055.69 263.63 1056.14 263.49 1056.6 263.38L1056.66 263.38 1057.07 263.29 1057.17 263.29 1057.54 263.23 1057.7 263.23 1058.02 263.23 1058.27 263.23 1058.52 263.23 1059.75 263.23 1060.04 263.23 1060.29 263.23 1060.51 263.23 1060.8 263.28C1060.86 263.274 1060.91 263.274 1060.97 263.28L1061.3 263.34 1061.43 263.34C1061.86 263.441 1062.28 263.568 1062.69 263.72L1062.69 263.72C1063.22 263.919 1063.73 264.16 1064.22 264.44L1064.22 264.44C1064.63 264.675 1065.03 264.939 1065.41 265.23L1065.48 265.29C1065.57 265.354 1065.66 265.424 1065.74 265.5L1065.88 265.62 1066.07 265.79 1066.41 266.11C1066.95 266.657 1067.44 267.26 1067.85 267.91L1067.95 268.06 1068.09 268.32 1068.19 268.49C1068.19 268.57 1068.28 268.65 1068.32 268.74L1068.41 268.93 1068.53 269.17 1068.62 269.37C1068.65 269.452 1068.68 269.532 1068.72 269.61 1068.74 269.685 1068.77 269.758 1068.8 269.83 1068.83 269.908 1068.86 269.989 1068.88 270.07 1068.88 270.14 1068.93 270.22 1068.96 270.3 1068.99 270.38 1069.01 270.45 1069.03 270.53 1069.05 270.61 1069.03 270.69 1069.1 270.77L1069.16 271C1069.16 271.09 1069.16 271.17 1069.21 271.25 1069.23 271.326 1069.25 271.402 1069.26 271.48 1069.26 271.57 1069.26 271.66 1069.26 271.75L1069.26 271.97C1069.26 272.06 1069.26 272.16 1069.26 272.26 1069.26 272.327 1069.26 272.393 1069.26 272.46 1069.26 272.57 1069.26 272.68 1069.26 272.78 1069.26 272.88 1069.26 272.9 1069.26 272.96 1069.26 273.02 1069.26 273.29 1069.26 273.46 1069.33 275.151 1068.98 276.835 1068.25 278.36L1071.74 281C1072.9 281.872 1074 282.828 1075.03 283.86L1077.03 285.86ZM1077.89 288.87 1077.89 288.87 1074.62 292.13 1074.62 292.13 1072.99 292.68 1072.45 292.14 1073.54 291.05 1073.54 291.05 1076.8 287.78 1076.8 287.78 1077.89 286.69 1078.43 287.24Z" fill="#FFFFFF"/><path d="M1077.89 286.7 1076.8 287.78 1076.8 287.78 1073.54 291.05 1073.54 291.05 1072.45 292.14 1072.99 292.68 1074.62 292.13 1074.62 292.13 1077.88 288.87 1077.88 288.87 1078.43 287.24 1077.89 286.7Z" fill="#2C5967"/><path d="M1075.03 283.85C1074 282.821 1072.9 281.869 1071.74 281L1068.25 278.36C1069.05 276.861 1069.46 275.188 1069.46 273.49 1069.46 273.32 1069.46 273.15 1069.46 272.99 1069.46 272.83 1069.46 272.87 1069.46 272.81 1069.46 272.75 1069.46 272.6 1069.46 272.49 1069.46 272.423 1069.46 272.357 1069.46 272.29 1069.46 272.19 1069.46 272.09 1069.46 272L1069.46 271.78C1069.46 271.69 1069.46 271.6 1069.46 271.51 1069.45 271.432 1069.43 271.356 1069.41 271.28 1069.41 271.2 1069.41 271.12 1069.36 271.03L1069.3 270.8C1069.3 270.72 1069.25 270.64 1069.23 270.56 1069.21 270.48 1069.18 270.4 1069.16 270.33 1069.14 270.26 1069.11 270.17 1069.08 270.1 1069.06 270.019 1069.03 269.938 1069 269.86 1068.97 269.788 1068.94 269.715 1068.92 269.64 1068.88 269.562 1068.85 269.482 1068.82 269.4L1068.73 269.2 1068.41 269 1068.32 268.81C1068.32 268.72 1068.23 268.64 1068.19 268.56L1068.09 268.39 1067.95 268.13 1067.85 267.98C1067.44 267.33 1066.95 266.727 1066.41 266.18L1066.07 265.86 1065.88 265.69 1065.74 265.57C1065.66 265.494 1065.57 265.424 1065.48 265.36L1065.41 265.3C1065.04 264.997 1064.66 264.719 1064.25 264.47L1064.25 264.47C1063.76 264.19 1063.25 263.949 1062.72 263.75L1062.72 263.75C1062.31 263.598 1061.89 263.471 1061.46 263.37L1061.33 263.37 1061 263.31C1060.94 263.304 1060.89 263.304 1060.83 263.31L1060.54 263.26 1060.32 263.26 1060.07 263.26 1059.78 263.26 1058.56 263.26 1058.31 263.26 1058.06 263.26 1057.74 263.26 1057.58 263.26 1057.21 263.32 1057.11 263.32 1056.7 263.41 1056.64 263.41C1056.17 263.508 1055.7 263.638 1055.25 263.8L1055.25 263.8 1054.86 263.96 1054.86 263.96 1054.49 264.13 1054.49 264.13C1054.24 264.25 1054 264.37 1053.77 264.51L1053.77 264.51C1053.42 264.725 1053.09 264.959 1052.77 265.21L1052.77 265.21 1052.45 265.46 1052.35 265.55 1052.11 265.76C1051.99 265.87 1051.88 265.97 1051.77 266.09 1051.3 266.56 1050.88 267.072 1050.5 267.62L1050.5 267.62C1050.47 267.655 1050.44 267.692 1050.42 267.73L1050.18 268.11C1050.18 268.11 1050.18 268.2 1050.11 268.24 1050.04 268.28 1050 268.43 1049.95 268.52 1049.93 268.575 1049.9 268.629 1049.87 268.68L1049.68 269C1049.68 269.06 1049.68 269.11 1049.61 269.16 1049.54 269.21 1049.5 269.4 1049.45 269.53 1049.45 269.57 1049.45 269.61 1049.45 269.65 1049.4 269.76 1049.36 269.88 1049.32 269.99L1049.25 270.16C1049.22 270.249 1049.19 270.339 1049.17 270.43L1049.11 270.61C1049.11 270.7 1049.06 270.79 1049.04 270.89 1049.03 270.943 1049.03 270.997 1049.04 271.05 1049 271.184 1048.97 271.321 1048.95 271.46 1048.95 271.52 1048.95 271.58 1048.95 271.64 1048.95 271.73 1048.95 271.82 1048.95 271.91L1048.95 272.11 1048.95 272.36C1048.95 272.42 1048.95 272.49 1048.95 272.56 1048.95 272.63 1048.95 272.76 1048.95 272.86 1048.95 272.95 1048.95 273.04 1048.95 273.13 1048.95 273.227 1048.95 273.323 1048.95 273.42L1048.95 273.63C1048.94 273.707 1048.94 273.783 1048.95 273.86 1048.95 273.937 1048.95 274.013 1048.95 274.09 1048.95 274.16 1048.95 274.24 1048.95 274.32 1048.95 274.4 1048.95 274.46 1048.95 274.53 1048.95 274.6 1048.95 274.8 1048.95 274.93L1048.95 275.15C1048.95 275.23 1048.95 275.3 1048.95 275.37 1048.95 275.44 1048.95 275.53 1048.95 275.6 1048.95 275.67 1048.95 275.74 1048.95 275.81 1048.97 275.886 1048.99 275.962 1049 276.04L1049.06 276.26 1049.18 276.64 1049.24 276.85 1049.33 277.08 1049.33 277.14C1049.53 277.682 1049.78 278.208 1050.07 278.71L1050.07 278.71C1050.52 279.485 1051.07 280.198 1051.7 280.83L1051.7 280.88 1051.7 280.88C1051.86 281.04 1052.02 281.18 1052.19 281.33L1052.31 281.44 1052.52 281.61 1052.66 281.71C1053.21 282.138 1053.8 282.507 1054.42 282.81L1054.42 282.81C1054.57 282.88 1054.72 282.96 1054.88 283.02L1054.88 283.02C1055.44 283.268 1056.03 283.463 1056.63 283.6L1056.75 283.6 1057.08 283.67 1057.24 283.67 1057.54 283.72 1057.76 283.72 1058.02 283.72 1058.3 283.72 1058.5 283.72 1059 283.72C1060.79 283.721 1062.54 283.263 1064.1 282.39L1066.84 286.04C1067.47 286.936 1068.18 287.776 1068.96 288.55L1071.55 291.13 1076.98 285.7ZM1071.61 289.12 1070.11 287.62C1069.38 286.901 1068.71 286.117 1068.11 285.28L1065.42 281.69C1066.18 281.119 1066.85 280.446 1067.42 279.69L1070.82 282.24C1071.92 283.073 1072.97 283.978 1073.95 284.95L1074.87 285.88Z" fill="#2C5967"/><path d="M1052.79 279.75C1056.25 283.202 1061.85 283.196 1065.31 279.736 1068.76 276.276 1068.75 270.672 1065.29 267.22 1061.84 263.773 1056.24 263.773 1052.79 267.22 1049.33 270.641 1049.3 276.219 1052.72 279.679 1052.74 279.703 1052.77 279.727 1052.79 279.75Z" fill="#FFFFFF"/><path d="M1063.95 269.2 1062.86 268.11 1057.2 273.7 1054.93 271.44 1053.85 272.53 1057.19 275.87 1063.95 269.2Z" fill="#2C5967"/><path d="M1064.7 270 1057.22 277.52 1053 273.26 1051.91 274.34 1057.21 279.71 1065.8 271.08 1064.7 270Z" fill="#2C5967"/></g></svg>