<svg width="44" height="42" xmlns="http://www.w3.org/2000/svg" xmlns:xlink="http://www.w3.org/1999/xlink" xml:space="preserve" overflow="hidden"><defs><clipPath id="clip0"><rect x="1038" y="79" width="44" height="42"/></clipPath></defs><g transform="translate(-1038 -79)"><path d="M1059.41 120.132C1053 116.892 1049.11 111.906 1048.83 106.312L1048.83 101.326 1038.68 101.326 1038.79 99.8305C1039.05 96.2709 1041.13 93.0987 1044.29 91.4444 1044.99 91.0902 1045.48 90.4346 1045.62 89.6695 1046.34 85.9669 1049.59 83.295 1053.36 83.2977 1053.6 83.2977 1053.85 83.2977 1054.09 83.2977L1054.35 83.2977C1055 83.3137 1055.63 83.0573 1056.09 82.5897 1057.93 80.6207 1060.5 79.5014 1063.19 79.4986 1066.86 79.4868 1070.22 81.5638 1071.85 84.8533 1072.2 85.5515 1072.85 86.0535 1073.61 86.2194 1078.95 87.3999 1082.31 92.6809 1081.13 98.0149 1080.93 98.9057 1080.61 99.7651 1080.18 100.568L1079.78 101.296 1071.3 101.296 1071.3 106.282C1070.98 111.906 1067.06 116.892 1060.66 120.132L1060.03 120.442Z" fill="#FFFFFF"/><path d="M1063.19 79.9972C1066.67 79.9857 1069.85 81.9544 1071.4 85.0726 1071.82 85.9067 1072.59 86.5073 1073.5 86.708 1074.56 86.9323 1075.58 87.3479 1076.49 87.9345 1080.66 90.5707 1082.09 95.9788 1079.76 100.329L1079.5 100.798 1070.8 100.798 1070.8 106.282C1070.49 111.657 1066.71 116.543 1060.43 119.684L1060.08 119.883 1059.68 119.684C1053.44 116.553 1049.71 111.707 1049.38 106.282L1049.38 100.798 1039.22 100.798 1039.29 99.8006C1039.53 96.413 1041.51 93.3934 1044.52 91.8234 1045.34 91.4077 1045.92 90.6508 1046.12 89.7593 1046.58 87.3899 1048.18 85.3974 1050.39 84.4245 1051.33 84.0122 1052.35 83.7984 1053.38 83.7963 1053.6 83.7811 1053.83 83.7811 1054.06 83.7963L1054.37 83.7963C1055.17 83.8006 1055.94 83.468 1056.49 82.8789 1058.23 81.0364 1060.66 79.9939 1063.19 79.9972M1063.19 79C1060.36 79.005 1057.67 80.1821 1055.74 82.2507 1055.38 82.6382 1054.88 82.8555 1054.35 82.849L1054.1 82.849C1053.84 82.849 1053.58 82.849 1053.32 82.849 1052.16 82.8528 1051.01 83.0936 1049.94 83.557 1047.46 84.6643 1045.66 86.9045 1045.12 89.5698 1045 90.1732 1044.61 90.6883 1044.07 90.9658 1040.74 92.6958 1038.55 96.0308 1038.29 99.7707L1038.22 100.768 1038.14 101.795 1048.32 101.795 1048.32 106.322C1048.65 112.095 1052.6 117.291 1059.17 120.571L1059.58 120.771 1060.02 121 1060.47 120.771 1060.87 120.571C1067.48 117.261 1071.46 112.076 1071.84 106.342L1071.84 101.795 1080.12 101.795 1080.4 101.276 1080.66 100.808C1083.38 95.7464 1081.48 89.4418 1076.41 86.726 1075.57 86.2714 1074.66 85.9364 1073.72 85.7308 1073.1 85.6002 1072.58 85.1922 1072.29 84.6239 1070.58 81.1671 1067.05 78.9859 1063.19 79Z" fill="#FFFFFF"/><path d="M1076.47 87.9744C1075.56 87.3959 1074.54 86.9841 1073.48 86.7578 1072.57 86.5572 1071.8 85.9565 1071.38 85.1225 1069.12 80.5844 1063.62 78.7319 1059.08 80.9847 1058.08 81.4817 1057.18 82.1574 1056.42 82.9786 1055.8 83.646 1054.9 83.982 1053.99 83.886 1050.25 83.5573 1046.87 86.0852 1046.12 89.7593 1045.93 90.6657 1045.35 91.4392 1044.52 91.8633 1041.51 93.4333 1039.53 96.4529 1039.29 99.8405L1039.22 100.838 1047.98 100.838 1047.98 99.0128 1041.2 99.0128C1041.67 96.6204 1043.2 94.5709 1045.36 93.4487 1046.66 92.7745 1047.58 91.5449 1047.86 90.1083 1048.41 87.2993 1051 85.3588 1053.85 85.6111 1055.32 85.7716 1056.78 85.2282 1057.79 84.1453 1060.56 81.1566 1065.23 80.9798 1068.21 83.7502 1068.87 84.3554 1069.4 85.0737 1069.8 85.8704 1070.45 87.1904 1071.67 88.141 1073.11 88.453 1077.21 89.3478 1079.8 93.3924 1078.91 97.4866 1078.79 98.0119 1078.62 98.5235 1078.4 99.0128L1072.15 99.0128 1072.15 100.798 1079.48 100.798 1079.74 100.329C1082.04 95.9878 1080.62 90.6111 1076.47 87.9744Z" fill="#2C5967"/><path d="M1057.63 103.58C1057.43 104.645 1057.94 105.716 1058.9 106.222L1058.41 109.393 1061.72 109.393 1061.25 106.202C1062.44 105.546 1062.88 104.043 1062.23 102.845 1061.57 101.647 1060.07 101.209 1058.87 101.865 1058.22 102.222 1057.76 102.851 1057.63 103.58Z" fill="#2C5967"/><path d="M1066.91 93.7778C1066.91 89.9944 1063.84 86.9274 1060.06 86.9274 1056.28 86.9274 1053.21 89.9944 1053.21 93.7778L1053.21 94.5755 1049.32 96.2806 1049.32 106.252C1049.62 111.647 1053.38 116.523 1059.62 119.654L1060.02 119.853 1060.43 119.654C1066.7 116.503 1070.48 111.677 1070.79 106.252L1070.79 96.2009 1066.9 94.5356ZM1055 93.7778C1055.13 90.983 1057.49 88.8178 1060.29 88.9419 1062.91 89.0583 1065.01 91.1568 1065.13 93.7778L1060.08 91.584 1055.09 93.7878ZM1069.05 106.202C1068.77 110.799 1065.51 115.027 1060.08 117.879 1054.68 115.047 1051.43 110.819 1051.17 106.202L1051.17 97.4473 1060.14 93.5385 1069.11 97.3775Z" fill="#2C5967"/></g></svg>