<svg width="42" height="42" xmlns="http://www.w3.org/2000/svg" xmlns:xlink="http://www.w3.org/1999/xlink" xml:space="preserve" overflow="hidden"><g transform="translate(-906 -79)"><path d="M908.67 120.5C907.48 120.5 906.5 119.53 906.5 118.33L906.5 81.67C906.5 80.48 907.47 79.5 908.67 79.5L945.34 79.5C946.53 79.5 947.51 80.47 947.51 81.67L947.51 118.34C947.51 119.53 946.54 120.51 945.34 120.51L908.67 120.51Z" fill="#FFFFFF"/><path d="M945.33 80C946.25 80 947 80.75 947 81.67L947 118.34C947 119.26 946.25 120.01 945.33 120.01L908.67 120.01C907.75 120 907 119.25 907 118.33L907 81.67C907 80.75 907.75 80 908.67 80L945.33 80M945.33 79 908.67 79C907.2 79 906 80.2 906 81.67L906 118.34C906 119.8 907.2 121 908.67 121L945.34 121C946.8 121 948 119.8 948 118.33L948 81.67C948 80.2 946.8 79 945.33 79L945.33 79Z" fill="#FFFFFF"/><path d="M945.33 80 908.67 80C907.75 80 907 80.75 907 81.67L907 118.34C907 119.25 907.75 120 908.67 120L945.34 120C946.26 120 947.01 119.25 947.01 118.33L947.01 81.67C947 80.75 946.25 80 945.33 80ZM945.52 118.33C945.52 118.43 945.44 118.52 945.33 118.52L908.67 118.52C908.57 118.52 908.48 118.44 908.48 118.33L908.48 81.67C908.48 81.57 908.56 81.48 908.67 81.48L945.34 81.48C945.44 81.48 945.53 81.56 945.53 81.67L945.53 118.33Z" fill="#2C5967"/><path d="M912.56 114.44 941.63 114.44 941.63 105.55 912.56 105.55 912.56 114.44ZM914.04 107.04 940.15 107.04 940.15 112.97 914.04 112.97 914.04 107.04Z" fill="#2C5967"/><path d="M937.92 110C937.92 110.613 937.423 111.11 936.81 111.11 936.197 111.11 935.7 110.613 935.7 110 935.7 109.387 936.197 108.89 936.81 108.89 937.423 108.89 937.92 109.387 937.92 110Z" fill="#2C5967"/><path d="M921.44 85.56 912.56 85.56 912.56 94.45 921.45 94.45 921.45 85.56ZM919.96 92.96 914.04 92.96 914.04 87.04 919.97 87.04 919.97 92.96Z" fill="#2C5967"/><path d="M931.44 85.56 922.55 85.56 922.55 94.45 931.44 94.45 931.44 85.56ZM929.96 92.96 924.03 92.96 924.03 87.04 929.96 87.04 929.96 92.96Z" fill="#2C5967"/><path d="M921.44 95.56 912.56 95.56 912.56 104.45 921.45 104.45 921.45 95.56ZM919.96 102.96 914.04 102.96 914.04 97.03 919.97 97.03 919.97 102.96Z" fill="#2C5967"/><path d="M931.44 95.56 922.55 95.56 922.55 104.45 931.44 104.45 931.44 95.56ZM929.96 102.96 924.03 102.96 924.03 97.03 929.96 97.03 929.96 102.96Z" fill="#2C5967"/><path d="M941.44 85.56 932.55 85.56 932.55 94.45 941.44 94.45 941.44 85.56ZM939.96 92.96 934.03 92.96 934.03 87.04 939.96 87.04 939.96 92.96Z" fill="#2C5967"/><path d="M941.44 95.56 932.55 95.56 932.55 104.45 941.44 104.45 941.44 95.56ZM939.96 102.96 934.03 102.96 934.03 97.03 939.96 97.03 939.96 102.96Z" fill="#2C5967"/></g></svg>